<svg id="Group_144197" data-name="Group 144197" xmlns="http://www.w3.org/2000/svg" xmlns:xlink="http://www.w3.org/1999/xlink" width="183.498" height="100" viewBox="0 0 183.498 100">
  <defs>
    <clipPath id="clip-path">
      <rect id="Rectangle_2208" data-name="Rectangle 2208" width="183.498" height="100" fill="none" stroke="#f9c20a" stroke-width="2"/>
    </clipPath>
  </defs>
  <rect id="Rectangle_2168" data-name="Rectangle 2168" width="123.945" height="22.205" transform="translate(29.777 54.956)" fill="none" stroke="#f9c20a" stroke-linejoin="round" stroke-width="2"/>
  <rect id="Rectangle_2169" data-name="Rectangle 2169" width="4.268" height="4.166" transform="translate(18.223 41.77)" fill="none" stroke="#f9c20a" stroke-linejoin="round" stroke-width="2"/>
  <g id="Group_144196" data-name="Group 144196">
    <g id="Group_144195" data-name="Group 144195" clip-path="url(#clip-path)">
      <path id="Path_41941" data-name="Path 41941" d="M192.464,77.44V87.987s-2.47,6.665-5.185,7.494v4.166H63.335V95.481c-2.715-.829-5.185-7.494-5.185-7.494V77.44Z" transform="translate(-33.558 -44.69)" fill="none" stroke="#f9c20a" stroke-linejoin="round" stroke-width="2"/>
      <rect id="Rectangle_2170" data-name="Rectangle 2170" width="4.268" height="4.166" transform="translate(161.008 41.77)" fill="none" stroke="#f9c20a" stroke-linejoin="round" stroke-width="2"/>
      <path id="Path_41942" data-name="Path 41942" d="M103.177,48.57v4.343s-3.908,4.5-8.2,5.058v2.808H48.91L45.51,56.6l7.769-8.027Z" transform="translate(-26.264 -28.03)" fill="none" stroke="#f9c20a" stroke-linejoin="round" stroke-width="2"/>
      <path id="Path_41943" data-name="Path 41943" d="M25.458,87.987V77.44H6.685V87.987S4.215,94.652,1.5,95.481v4.166H30.642V95.481C27.927,94.652,25.458,87.987,25.458,87.987Zm-12.23,2.639H8.787V86.461h4.44Zm10.129,0h-4.44V86.461h4.44Z" transform="translate(-0.866 -44.69)" fill="none" stroke="#f9c20a" stroke-linejoin="round" stroke-width="2"/>
      <rect id="Rectangle_2171" data-name="Rectangle 2171" width="4.44" height="4.166" transform="translate(7.921 41.77)" fill="none" stroke="#f9c20a" stroke-linejoin="round" stroke-width="2"/>
      <rect id="Rectangle_2172" data-name="Rectangle 2172" width="4.44" height="4.166" transform="translate(18.05 41.77)" fill="none" stroke="#f9c20a" stroke-linejoin="round" stroke-width="2"/>
      <line id="Line_470" data-name="Line 470" y1="9.512" transform="translate(15.205 14.988)" fill="none" stroke="#f9c20a" stroke-linejoin="round" stroke-width="2"/>
      <path id="Path_41944" data-name="Path 41944" d="M33.242,64.946H18.361L25.8,55.79l4.043,4.973Z" transform="translate(-10.596 -32.196)" fill="none" stroke="#f9c20a" stroke-linejoin="round" stroke-width="2"/>
      <rect id="Rectangle_2173" data-name="Rectangle 2173" width="29.142" height="44.409" transform="translate(0.634 54.956)" fill="none" stroke="#f9c20a" stroke-linejoin="round" stroke-width="2"/>
      <rect id="Rectangle_2174" data-name="Rectangle 2174" width="4.441" height="13.045" transform="translate(7.919 59.397)" fill="none" stroke="#f9c20a" stroke-linejoin="round" stroke-width="2"/>
      <rect id="Rectangle_2175" data-name="Rectangle 2175" width="4.441" height="13.045" transform="translate(18.05 59.397)" fill="none" stroke="#f9c20a" stroke-linejoin="round" stroke-width="2"/>
      <rect id="Rectangle_2176" data-name="Rectangle 2176" width="4.44" height="4.166" transform="translate(7.921 41.77)" fill="none" stroke="#f9c20a" stroke-linejoin="round" stroke-width="2"/>
      <rect id="Rectangle_2177" data-name="Rectangle 2177" width="4.44" height="4.166" transform="translate(18.05 41.77)" fill="none" stroke="#f9c20a" stroke-linejoin="round" stroke-width="2"/>
      <rect id="Rectangle_2178" data-name="Rectangle 2178" width="4.441" height="13.045" transform="translate(7.919 81.046)" fill="none" stroke="#f9c20a" stroke-linejoin="round" stroke-width="2"/>
      <rect id="Rectangle_2179" data-name="Rectangle 2179" width="4.441" height="13.045" transform="translate(18.05 81.046)" fill="none" stroke="#f9c20a" stroke-linejoin="round" stroke-width="2"/>
      <path id="Path_41945" data-name="Path 41945" d="M309.7,56.6l-3.4,4.183H260.231V57.971c-4.292-.562-8.2-5.058-8.2-5.058V48.57h49.9Z" transform="translate(-145.446 -28.03)" fill="none" stroke="#f9c20a" stroke-linejoin="round" stroke-width="2"/>
      <path id="Path_41946" data-name="Path 41946" d="M387.448,87.987V77.44H368.675V87.987s-2.47,6.665-5.185,7.494v4.166h29.142V95.481C389.917,94.652,387.448,87.987,387.448,87.987Zm-12.231,2.639h-4.441V86.461h4.441Zm10.129,0h-4.44V86.461h4.44Z" transform="translate(-209.768 -44.69)" fill="none" stroke="#f9c20a" stroke-linejoin="round" stroke-width="2"/>
      <rect id="Rectangle_2180" data-name="Rectangle 2180" width="4.44" height="4.166" transform="translate(161.008 41.77)" fill="none" stroke="#f9c20a" stroke-linejoin="round" stroke-width="2"/>
      <rect id="Rectangle_2181" data-name="Rectangle 2181" width="4.44" height="4.166" transform="translate(171.137 41.77)" fill="none" stroke="#f9c20a" stroke-linejoin="round" stroke-width="2"/>
      <path id="Path_41967" data-name="Path 41967" d="M0,9.656V0" transform="translate(168.293 14.988)" fill="none" stroke="#f9c20a" stroke-width="2"/>
      <path id="Path_41947" data-name="Path 41947" d="M395.233,64.946H380.351l3.4-4.183,4.043-4.973Z" transform="translate(-219.499 -32.196)" fill="none" stroke="#f9c20a" stroke-linejoin="round" stroke-width="2"/>
      <rect id="Rectangle_2182" data-name="Rectangle 2182" width="29.142" height="44.409" transform="translate(153.722 54.956)" fill="none" stroke="#f9c20a" stroke-linejoin="round" stroke-width="2"/>
      <rect id="Rectangle_2183" data-name="Rectangle 2183" width="4.441" height="13.045" transform="translate(171.138 59.397)" fill="none" stroke="#f9c20a" stroke-linejoin="round" stroke-width="2"/>
      <rect id="Rectangle_2184" data-name="Rectangle 2184" width="4.441" height="13.045" transform="translate(161.007 59.397)" fill="none" stroke="#f9c20a" stroke-linejoin="round" stroke-width="2"/>
      <rect id="Rectangle_2185" data-name="Rectangle 2185" width="4.44" height="4.166" transform="translate(171.137 41.77)" fill="none" stroke="#f9c20a" stroke-linejoin="round" stroke-width="2"/>
      <rect id="Rectangle_2186" data-name="Rectangle 2186" width="4.44" height="4.166" transform="translate(161.008 41.77)" fill="none" stroke="#f9c20a" stroke-linejoin="round" stroke-width="2"/>
      <rect id="Rectangle_2187" data-name="Rectangle 2187" width="4.441" height="13.045" transform="translate(171.138 81.046)" fill="none" stroke="#f9c20a" stroke-linejoin="round" stroke-width="2"/>
      <rect id="Rectangle_2188" data-name="Rectangle 2188" width="4.441" height="13.045" transform="translate(161.007 81.046)" fill="none" stroke="#f9c20a" stroke-linejoin="round" stroke-width="2"/>
      <rect id="Rectangle_2189" data-name="Rectangle 2189" width="123.945" height="22.205" transform="translate(29.777 77.161)" fill="none" stroke="#f9c20a" stroke-linejoin="round" stroke-width="2"/>
      <path id="Path_41948" data-name="Path 41948" d="M211.337,191.642a4.114,4.114,0,0,0-4.114,4.114v14.2h8.227v-14.2A4.114,4.114,0,0,0,211.337,191.642Z" transform="translate(-119.587 -110.596)" fill="none" stroke="#f9c20a" stroke-linejoin="round" stroke-width="2"/>
      <path id="Path_41949" data-name="Path 41949" d="M211.337,139.137a4.114,4.114,0,0,0-4.114,4.114v14.2h8.227v-14.2A4.114,4.114,0,0,0,211.337,139.137Z" transform="translate(-119.587 -80.295)" fill="none" stroke="#f9c20a" stroke-linejoin="round" stroke-width="2"/>
      <path id="Path_41950" data-name="Path 41950" d="M211.337,86.961a4.114,4.114,0,0,0-4.114,4.114V96.12h8.227V91.075A4.114,4.114,0,0,0,211.337,86.961Z" transform="translate(-119.587 -50.185)" fill="none" stroke="#f9c20a" stroke-linejoin="round" stroke-width="2"/>
      <path id="Path_41951" data-name="Path 41951" d="M208.552,54.18v2.808H162.481V54.18c4.292-.562,8.2-5.058,8.2-5.058V42h29.671v7.122S204.26,53.617,208.552,54.18Z" transform="translate(-93.767 -24.238)" fill="none" stroke="#f9c20a" stroke-linejoin="round" stroke-width="2"/>
      <line id="Line_472" data-name="Line 472" y1="8.5" transform="translate(91.749)" fill="none" stroke="#f9c20a" stroke-linejoin="round" stroke-width="2"/>
      <path id="Path_41952" data-name="Path 41952" d="M214.237,29.506H199.351l7.443-9.156Z" transform="translate(-115.044 -11.744)" fill="none" stroke="#f9c20a" stroke-linejoin="round" stroke-width="2"/>
      <rect id="Rectangle_2190" data-name="Rectangle 2190" width="4.441" height="4.163" transform="translate(37.487 41.772)" fill="none" stroke="#f9c20a" stroke-linejoin="round" stroke-width="2"/>
      <rect id="Rectangle_2191" data-name="Rectangle 2191" width="4.441" height="4.163" transform="translate(49.838 41.772)" fill="none" stroke="#f9c20a" stroke-linejoin="round" stroke-width="2"/>
      <rect id="Rectangle_2192" data-name="Rectangle 2192" width="4.441" height="4.163" transform="translate(62.189 41.772)" fill="none" stroke="#f9c20a" stroke-linejoin="round" stroke-width="2"/>
      <rect id="Rectangle_2193" data-name="Rectangle 2193" width="4.441" height="4.163" transform="translate(116.868 41.772)" fill="none" stroke="#f9c20a" stroke-linejoin="round" stroke-width="2"/>
      <rect id="Rectangle_2194" data-name="Rectangle 2194" width="4.441" height="4.163" transform="translate(129.219 41.772)" fill="none" stroke="#f9c20a" stroke-linejoin="round" stroke-width="2"/>
      <rect id="Rectangle_2195" data-name="Rectangle 2195" width="4.441" height="4.163" transform="translate(141.571 41.772)" fill="none" stroke="#f9c20a" stroke-linejoin="round" stroke-width="2"/>
      <rect id="Rectangle_2196" data-name="Rectangle 2196" width="4.441" height="13.045" transform="translate(37.487 59.397)" fill="none" stroke="#f9c20a" stroke-linejoin="round" stroke-width="2"/>
      <rect id="Rectangle_2197" data-name="Rectangle 2197" width="4.441" height="13.045" transform="translate(49.838 59.397)" fill="none" stroke="#f9c20a" stroke-linejoin="round" stroke-width="2"/>
      <rect id="Rectangle_2198" data-name="Rectangle 2198" width="4.441" height="13.045" transform="translate(62.189 59.397)" fill="none" stroke="#f9c20a" stroke-linejoin="round" stroke-width="2"/>
      <rect id="Rectangle_2199" data-name="Rectangle 2199" width="4.441" height="13.045" transform="translate(37.487 81.046)" fill="none" stroke="#f9c20a" stroke-linejoin="round" stroke-width="2"/>
      <rect id="Rectangle_2200" data-name="Rectangle 2200" width="4.441" height="13.045" transform="translate(49.838 81.046)" fill="none" stroke="#f9c20a" stroke-linejoin="round" stroke-width="2"/>
      <rect id="Rectangle_2201" data-name="Rectangle 2201" width="4.441" height="13.045" transform="translate(62.189 81.046)" fill="none" stroke="#f9c20a" stroke-linejoin="round" stroke-width="2"/>
      <rect id="Rectangle_2202" data-name="Rectangle 2202" width="4.441" height="13.045" transform="translate(116.868 59.397)" fill="none" stroke="#f9c20a" stroke-linejoin="round" stroke-width="2"/>
      <rect id="Rectangle_2203" data-name="Rectangle 2203" width="4.441" height="13.045" transform="translate(129.219 59.397)" fill="none" stroke="#f9c20a" stroke-linejoin="round" stroke-width="2"/>
      <rect id="Rectangle_2204" data-name="Rectangle 2204" width="4.441" height="13.045" transform="translate(141.571 59.397)" fill="none" stroke="#f9c20a" stroke-linejoin="round" stroke-width="2"/>
      <rect id="Rectangle_2205" data-name="Rectangle 2205" width="4.441" height="13.045" transform="translate(116.868 81.046)" fill="none" stroke="#f9c20a" stroke-linejoin="round" stroke-width="2"/>
      <rect id="Rectangle_2206" data-name="Rectangle 2206" width="4.441" height="13.045" transform="translate(129.219 81.046)" fill="none" stroke="#f9c20a" stroke-linejoin="round" stroke-width="2"/>
      <rect id="Rectangle_2207" data-name="Rectangle 2207" width="4.441" height="13.045" transform="translate(141.571 81.046)" fill="none" stroke="#f9c20a" stroke-linejoin="round" stroke-width="2"/>
      <path id="Path_41966" data-name="Path 41966" d="M26.767.231h124.3" transform="translate(2.237 77.16)" fill="none" stroke="#f9c20a" stroke-width="2"/>
      <line id="Line_474" data-name="Line 474" x1="123.945" transform="translate(29.777 54.956)" fill="none" stroke="#f9c20a" stroke-linejoin="round" stroke-width="2"/>
    </g>
  </g>
</svg>
