<svg xmlns="http://www.w3.org/2000/svg" width="34.218" height="31.147" viewBox="0 0 34.218 31.147">
  <g id="Layer_2" data-name="Layer 2" transform="translate(-0.65 -1.65)">
    <g id="Group_144136" data-name="Group 144136" transform="translate(1.25 2.25)">
      <path id="Path_41912" data-name="Path 41912" d="M31.581,26.84H3.938A2.691,2.691,0,0,1,1.25,24.152V14.938A2.691,2.691,0,0,1,3.938,12.25H25.029a1.152,1.152,0,0,1,0,2.3H3.938a.385.385,0,0,0-.384.384v9.214a.385.385,0,0,0,.384.384H31.581a.385.385,0,0,0,.384-.384V14.938a.385.385,0,0,0-.384-.384H30.045a1.152,1.152,0,1,1,0-2.3h1.536a2.691,2.691,0,0,1,2.688,2.688v9.214A2.691,2.691,0,0,1,31.581,26.84Z" transform="translate(-1.25 3.107)" fill="#f9c20a" stroke="#002749" stroke-width="1.2"/>
      <path id="Path_41913" data-name="Path 41913" d="M28.974,19.911a1.152,1.152,0,0,1-1.152-1.152V4.938a.385.385,0,0,0-.384-.384H9.645a.388.388,0,0,0-.271.112L5.666,8.373a.388.388,0,0,0-.112.271V18.759a1.152,1.152,0,1,1-2.3,0V8.645a2.67,2.67,0,0,1,.787-1.9L7.745,3.037a2.67,2.67,0,0,1,1.9-.787H27.438a2.691,2.691,0,0,1,2.688,2.688V18.759A1.152,1.152,0,0,1,28.974,19.911Z" transform="translate(-0.179 -2.25)" fill="#f9c20a" stroke="#002749" stroke-width="1.2"/>
      <path id="Path_41914" data-name="Path 41914" d="M10.545,10.7H4.4a1.152,1.152,0,0,1,0-2.3H9.393V3.4a1.152,1.152,0,0,1,2.3,0V9.545A1.152,1.152,0,0,1,10.545,10.7Z" transform="translate(-0.179 -2.25)" fill="#f9c20a" stroke="#002749" stroke-width="1.2"/>
    </g>
  </g>
</svg>
