<svg id="hamburg" xmlns="http://www.w3.org/2000/svg" xmlns:xlink="http://www.w3.org/1999/xlink" width="135.455" height="80" viewBox="0 0 135.455 80">
  <defs>
    <clipPath id="clip-path">
      <rect id="Rectangle_2209" data-name="Rectangle 2209" width="135.455" height="80" fill="none" stroke="#f9c20a" stroke-width="2"/>
    </clipPath>
  </defs>
  <g id="Group_144199" data-name="Group 144199">
    <g id="Group_144198" data-name="Group 144198" clip-path="url(#clip-path)">
      <path id="Path_41953" data-name="Path 41953" d="M32.1,2.22,24.457,13.636l-.4.594L19.747,26.573H5.73L12.2,13.636Z" transform="translate(-3.05 -1.182)" fill="none" stroke="#f9c20a" stroke-linejoin="round" stroke-width="2"/>
      <path id="Path_41954" data-name="Path 41954" d="M253.878,26.573H239.866l-4.312-12.343-.4-.594L227.51,2.22l19.9,11.417Z" transform="translate(-121.103 -1.182)" fill="none" stroke="#f9c20a" stroke-linejoin="round" stroke-width="2"/>
      <path id="Path_41955" data-name="Path 41955" d="M191.534,13.847l-.4-.594L183.489,1.837l-.074-.047-.51-.29H144.811l15.05,11.753.762.594,3.952,12.343h31.27Zm-7.011,7.67H179.49V16.485h5.032Z" transform="translate(-77.083 -0.798)" fill="none" stroke="#f9c20a" stroke-linejoin="round" stroke-width="2"/>
      <path id="Path_41956" data-name="Path 41956" d="M48.637,1.5l-.509.29-.075.047L40.41,13.253l-.4.594L35.7,26.19H66.966l3.952-12.343.762-.594L86.731,1.5Zm3.414,20.018H47.018V16.485h5.032Z" transform="translate(-19.003 -0.798)" fill="none" stroke="#f9c20a" stroke-linejoin="round" stroke-width="2"/>
    </g>
  </g>
  <rect id="Rectangle_2210" data-name="Rectangle 2210" width="5.032" height="5.032" transform="translate(28.015 15.687)" fill="none" stroke="#f9c20a" stroke-linejoin="round" stroke-width="2"/>
  <rect id="Rectangle_2211" data-name="Rectangle 2211" width="5.032" height="5.032" transform="translate(102.407 15.687)" fill="none" stroke="#f9c20a" stroke-linejoin="round" stroke-width="2"/>
  <g id="Group_144201" data-name="Group 144201">
    <g id="Group_144200" data-name="Group 144200" clip-path="url(#clip-path)">
      <path id="Path_41957" data-name="Path 41957" d="M142.08,26.19h-39.53L106.5,13.847l.762-.594L122.315,1.5l15.051,11.753.762.594Z" transform="translate(-54.587 -0.799)" fill="none" stroke="#f9c20a" stroke-linejoin="round" stroke-width="2"/>
    </g>
  </g>
  <rect id="Rectangle_2213" data-name="Rectangle 2213" width="5.032" height="5.032" transform="translate(28.015 15.687)" fill="none" stroke="#f9c20a" stroke-linejoin="round" stroke-width="2"/>
  <rect id="Rectangle_2214" data-name="Rectangle 2214" width="5.032" height="5.032" transform="translate(102.407 15.687)" fill="none" stroke="#f9c20a" stroke-linejoin="round" stroke-width="2"/>
  <g id="Group_144203" data-name="Group 144203">
    <g id="Group_144202" data-name="Group 144202" clip-path="url(#clip-path)">
      <line id="Line_475" data-name="Line 475" x1="0.224" y2="0.337" transform="translate(29.049 0.702)" fill="none" stroke="#f9c20a" stroke-linejoin="round" stroke-width="2"/>
      <line id="Line_476" data-name="Line 476" x1="0.224" y1="0.337" transform="translate(106.182 0.702)" fill="none" stroke="#f9c20a" stroke-linejoin="round" stroke-width="2"/>
      <rect id="Rectangle_2215" data-name="Rectangle 2215" width="134.052" height="5.393" transform="translate(0.702 25.391)" fill="none" stroke="#f9c20a" stroke-linejoin="round" stroke-width="2"/>
    </g>
  </g>
  <rect id="Rectangle_2217" data-name="Rectangle 2217" width="123.627" height="28.749" transform="translate(5.916 30.784)" fill="none" stroke="#f9c20a" stroke-linejoin="round" stroke-width="2"/>
  <rect id="Rectangle_2218" data-name="Rectangle 2218" width="123.627" height="13.297" transform="translate(5.916 59.533)" fill="none" stroke="#f9c20a" stroke-linejoin="round" stroke-width="2"/>
  <g id="Group_144205" data-name="Group 144205">
    <g id="Group_144204" data-name="Group 144204" clip-path="url(#clip-path)">
      <rect id="Rectangle_2219" data-name="Rectangle 2219" width="126.143" height="6.468" transform="translate(4.658 72.83)" fill="none" stroke="#f9c20a" stroke-linejoin="round" stroke-width="2"/>
      <path id="Path_41958" data-name="Path 41958" d="M58.2,75.5a2.173,2.173,0,0,0-2.167,2.167V95.194h4.334V77.666A2.173,2.173,0,0,0,58.2,75.5Z" transform="translate(-29.826 -40.188)" fill="none" stroke="#f9c20a" stroke-linejoin="round" stroke-width="2"/>
      <path id="Path_41959" data-name="Path 41959" d="M76.664,75.5A2.173,2.173,0,0,0,74.5,77.666V95.194h4.334V77.666A2.173,2.173,0,0,0,76.664,75.5Z" transform="translate(-39.655 -40.188)" fill="none" stroke="#f9c20a" stroke-linejoin="round" stroke-width="2"/>
      <path id="Path_41960" data-name="Path 41960" d="M208.028,75.5a2.173,2.173,0,0,0-2.167,2.167V95.194h4.334V77.666A2.173,2.173,0,0,0,208.028,75.5Z" transform="translate(-109.58 -40.188)" fill="none" stroke="#f9c20a" stroke-linejoin="round" stroke-width="2"/>
      <path id="Path_41961" data-name="Path 41961" d="M226.492,75.5a2.173,2.173,0,0,0-2.167,2.167V95.194h4.334V77.666A2.173,2.173,0,0,0,226.492,75.5Z" transform="translate(-119.408 -40.188)" fill="none" stroke="#f9c20a" stroke-linejoin="round" stroke-width="2"/>
      <path id="Path_41962" data-name="Path 41962" d="M116.2,75.5a2.173,2.173,0,0,0-2.167,2.167V95.194h4.334V77.666A2.173,2.173,0,0,0,116.2,75.5Z" transform="translate(-60.698 -40.188)" fill="none" stroke="#f9c20a" stroke-linejoin="round" stroke-width="2"/>
      <path id="Path_41963" data-name="Path 41963" d="M142.346,75.5a2.173,2.173,0,0,0-2.167,2.167V95.194h4.334V77.666A2.173,2.173,0,0,0,142.346,75.5Z" transform="translate(-74.617 -40.188)" fill="none" stroke="#f9c20a" stroke-linejoin="round" stroke-width="2"/>
      <path id="Path_41964" data-name="Path 41964" d="M168.495,75.5a2.173,2.173,0,0,0-2.167,2.167V95.194h4.334V77.666A2.173,2.173,0,0,0,168.495,75.5Z" transform="translate(-88.536 -40.188)" fill="none" stroke="#f9c20a" stroke-linejoin="round" stroke-width="2"/>
      <line id="Line_477" data-name="Line 477" y1="28.749" transform="translate(16.697 30.784)" fill="none" stroke="#f9c20a" stroke-linejoin="round" stroke-width="2"/>
      <line id="Line_478" data-name="Line 478" y1="28.749" transform="translate(118.763 30.784)" fill="none" stroke="#f9c20a" stroke-linejoin="round" stroke-width="2"/>
      <line id="Line_479" data-name="Line 479" y1="5.486" transform="translate(87.493 72.83)" fill="none" stroke="#f9c20a" stroke-linejoin="round" stroke-width="2"/>
      <line id="Line_480" data-name="Line 480" y1="0.987" transform="translate(87.493 24.405)" fill="none" stroke="#f9c20a" stroke-linejoin="round" stroke-width="2"/>
      <line id="Line_481" data-name="Line 481" y1="28.749" transform="translate(87.493 30.784)" fill="none" stroke="#f9c20a" stroke-linejoin="round" stroke-width="2"/>
      <line id="Line_482" data-name="Line 482" y1="5.486" transform="translate(47.963 72.83)" fill="none" stroke="#f9c20a" stroke-linejoin="round" stroke-width="2"/>
      <line id="Line_483" data-name="Line 483" y1="0.987" transform="translate(47.963 24.405)" fill="none" stroke="#f9c20a" stroke-linejoin="round" stroke-width="2"/>
      <line id="Line_484" data-name="Line 484" y1="28.749" transform="translate(47.963 30.784)" fill="none" stroke="#f9c20a" stroke-linejoin="round" stroke-width="2"/>
    </g>
  </g>
</svg>
