<svg id="munich" xmlns="http://www.w3.org/2000/svg" xmlns:xlink="http://www.w3.org/1999/xlink" width="91.151" height="100" viewBox="0 0 91.151 100">
  <defs>
    <clipPath id="clip-path">
      <rect id="Rectangle_2225" data-name="Rectangle 2225" width="91.151" height="100" fill="#f9c20a"/>
    </clipPath>
  </defs>
  <g id="Group_144262" data-name="Group 144262" clip-path="url(#clip-path)">
    <path id="Path_41968" data-name="Path 41968" d="M91,75.06l-1.517-4.041a1.881,1.881,0,0,0-1.839-1.013V68.889a2.412,2.412,0,0,0-.161-.857l-7.048-17.97a2.34,2.34,0,0,0-2.176-1.48H35.12L33.5,45.076V18.027a6.34,6.34,0,0,0,1.558-4.108c0-3.371-2.779-6.186-6.482-6.856a1.9,1.9,0,0,0,.249-.935,1.947,1.947,0,0,0-.971-1.678V1.022a1.007,1.007,0,0,0-.81-1.008A.97.97,0,0,0,25.907.97V4.45a1.941,1.941,0,0,0-.976,1.678,1.9,1.9,0,0,0,.249.935c-3.7.67-6.482,3.485-6.482,6.856a6.34,6.34,0,0,0,1.558,4.108V45.076l-1.62,3.506H17.2l-1.62-3.506V18.027a6.34,6.34,0,0,0,1.558-4.108c0-3.371-2.779-6.186-6.482-6.856a1.9,1.9,0,0,0,.249-.935A1.947,1.947,0,0,0,9.936,4.45V1.022A1.007,1.007,0,0,0,9.125.015.97.97,0,0,0,7.988.97V4.45a1.941,1.941,0,0,0-.976,1.678,1.9,1.9,0,0,0,.249.935c-3.7.67-6.482,3.485-6.482,6.856a6.34,6.34,0,0,0,1.558,4.108V45.076l-2.124,4.6A2.344,2.344,0,0,0,0,50.649V100H91.151V75.88A2.342,2.342,0,0,0,91,75.06M8.959,8.854c3.438,0,6.233,2.275,6.233,5.064a4.593,4.593,0,0,1-1.745,3.506H4.472a4.61,4.61,0,0,1-1.745-3.506c0-2.789,2.794-5.064,6.233-5.064m4.674,14.8V33.785H12.076V29.51c0-1.6-2.14-3.49-2.872-4.093a.392.392,0,0,0-.244-.088.4.4,0,0,0-.244.088c-.732.6-2.872,2.493-2.872,4.093v4.274H4.285V23.657ZM4.285,19.372H5.651v2.337H4.285Zm3.314,0h2.727v2.337H7.6Zm4.674,0h1.361v2.337H12.273ZM10.128,29.51V33.8H7.791v-4.28a4.075,4.075,0,0,1,1.169-1.683,4.1,4.1,0,0,1,1.169,1.678M5.843,35.732v.01h6.233v-.01h1.558v9.349H4.285V35.732Zm8.5,11.3.717,1.553H2.867l.712-1.553ZM4.093,98.052H1.948V90.262H4.093Zm0-9.738H1.948V80.523H4.093Zm0-9.738H1.948V70.785H4.093Zm0-9.738H1.948V61.047H4.093Zm0-9.738H1.948v-8.57H4.093Zm7.791,38.953H6.04V90.262h5.843Zm0-9.738H6.04V80.523h5.843Zm0-9.738H6.04V70.785h5.843Zm0-9.738H6.04V61.047h5.843Zm0-9.738H6.04v-8.57h5.843Zm4.088,38.953h-2.14V90.262h2.14Zm0-9.738h-2.14V80.523h2.14Zm0-9.738h-2.14V70.785h2.14Zm0-9.738h-2.14V61.047h2.14Zm0-9.738h-2.14v-8.57h2.14ZM26.878,8.854c3.438,0,6.233,2.275,6.233,5.064a4.593,4.593,0,0,1-1.745,3.506H22.39a4.61,4.61,0,0,1-1.745-3.506c0-2.789,2.794-5.064,6.233-5.064m4.674,14.8V33.785H29.994V29.51c0-1.6-2.14-3.49-2.872-4.093a.392.392,0,0,0-.244-.088.4.4,0,0,0-.244.088c-.732.6-2.872,2.493-2.872,4.093v4.274H22.2V23.657ZM22.2,19.372h1.366v2.337H22.2Zm3.314,0h2.727v2.337H25.517Zm4.674,0h1.361v2.337H30.191ZM28.046,29.51V33.8H25.709v-4.28a4.132,4.132,0,0,1,1.169-1.683,4.1,4.1,0,0,1,1.169,1.678m-4.285,6.222v.01h6.233v-.01h1.558v9.349H22.2V35.732Zm8.5,11.3.717,1.553H20.786l.712-1.553ZM24.151,98.052H21.814V80.529a4.169,4.169,0,0,1,1.169-1.688,4.141,4.141,0,0,1,1.169,1.683Zm8.18,0H29.994V80.529a4.169,4.169,0,0,1,1.169-1.688,4.141,4.141,0,0,1,1.169,1.683Zm8.18,0H38.174V80.529a4.111,4.111,0,0,1,1.169-1.688,4.141,4.141,0,0,1,1.169,1.683Zm8.18,0H46.354V80.529a4.111,4.111,0,0,1,1.169-1.688,4.141,4.141,0,0,1,1.169,1.683Zm8.18,0H54.535V80.529A4.111,4.111,0,0,1,55.7,78.841a4.141,4.141,0,0,1,1.169,1.683Zm8.18,0H62.715V80.529a4.111,4.111,0,0,1,1.169-1.688,4.141,4.141,0,0,1,1.169,1.683Zm8.18,0H70.9V80.529a4.111,4.111,0,0,1,1.169-1.688,4.141,4.141,0,0,1,1.169,1.683Zm3.9,0H75.18V80.523c0-1.6-2.14-3.49-2.872-4.093a.392.392,0,0,0-.244-.088.4.4,0,0,0-.244.088c-.732.6-2.872,2.493-2.872,4.093V98.052H67V80.523c0-1.6-2.14-3.49-2.872-4.093a.392.392,0,0,0-.244-.088.4.4,0,0,0-.244.088c-.732.6-2.872,2.493-2.872,4.093V98.052H58.82V80.523c0-1.6-2.14-3.49-2.872-4.093a.392.392,0,0,0-.244-.088.4.4,0,0,0-.244.088c-.732.6-2.872,2.493-2.872,4.093V98.052H50.639V80.523c0-1.6-2.14-3.49-2.872-4.093a.392.392,0,0,0-.244-.088.4.4,0,0,0-.244.088c-.732.6-2.872,2.493-2.872,4.093V98.052H42.459V80.523c0-1.6-2.14-3.49-2.872-4.093a.392.392,0,0,0-.244-.088.4.4,0,0,0-.244.088c-.732.6-2.872,2.493-2.872,4.093V98.052H34.279V80.523c0-1.6-2.14-3.49-2.872-4.093a.392.392,0,0,0-.244-.088.4.4,0,0,0-.244.088c-.732.6-2.872,2.493-2.872,4.093V98.052H26.1V80.523c0-1.6-2.14-3.49-2.872-4.093a.392.392,0,0,0-.244-.088.4.4,0,0,0-.244.088c-.732.6-2.872,2.493-2.872,4.093V98.052H17.919V75.46H77.128Zm0-24.541H17.919V71.954H77.128Zm0-3.506H17.919V68.448H77.128Zm0-3.506H17.919V50.529H77.128Zm1.948-14.574L84.788,66.5H79.075Zm0,16.521H85.7v1.558H79.075Zm0,3.506h8.684l.582,1.558H79.075Zm6.233,26.1H82.971V80.529a4.169,4.169,0,0,1,1.169-1.688,4.141,4.141,0,0,1,1.169,1.683Zm3.9,0H87.256V80.523c0-1.6-2.14-3.49-2.872-4.093a.392.392,0,0,0-.244-.088.4.4,0,0,0-.244.088c-.732.6-2.872,2.493-2.872,4.093V98.052H79.075V75.46h9.738a.389.389,0,0,1,.39.39Z" transform="translate(0 0)" fill="#f9c20a"/>
    <path id="Path_41969" data-name="Path 41969" d="M43.933,121.659H42.765a.389.389,0,0,0-.39.39v1.169a.389.389,0,0,0,.39.39h1.169a.39.39,0,0,0,.39-.39v-1.169a.39.39,0,0,0-.39-.39" transform="translate(-20.366 -58.472)" fill="#f9c20a"/>
    <path id="Path_41970" data-name="Path 41970" d="M43.933,111.159H42.765a.389.389,0,0,0-.39.39v1.169a.389.389,0,0,0,.39.39h1.169a.39.39,0,0,0,.39-.39v-1.169a.39.39,0,0,0-.39-.39" transform="translate(-20.366 -53.425)" fill="#f9c20a"/>
    <path id="Path_41971" data-name="Path 41971" d="M43.933,100.659H42.765a.389.389,0,0,0-.39.39v1.169a.389.389,0,0,0,.39.39h1.169a.388.388,0,0,0,.152-.031.393.393,0,0,0,.207-.207.388.388,0,0,0,.031-.152v-1.169a.39.39,0,0,0-.39-.39" transform="translate(-20.366 -48.379)" fill="#f9c20a"/>
    <path id="Path_41972" data-name="Path 41972" d="M59.683,121.659H58.515a.389.389,0,0,0-.39.39v1.169a.389.389,0,0,0,.39.39h1.169a.39.39,0,0,0,.39-.39v-1.169a.39.39,0,0,0-.39-.39" transform="translate(-27.936 -58.472)" fill="#f9c20a"/>
    <path id="Path_41973" data-name="Path 41973" d="M59.683,111.159H58.515a.389.389,0,0,0-.39.39v1.169a.389.389,0,0,0,.39.39h1.169a.39.39,0,0,0,.39-.39v-1.169a.39.39,0,0,0-.39-.39" transform="translate(-27.936 -53.425)" fill="#f9c20a"/>
    <path id="Path_41974" data-name="Path 41974" d="M59.683,100.659H58.515a.389.389,0,0,0-.39.39v1.169a.389.389,0,0,0,.39.39h1.169a.388.388,0,0,0,.152-.031.393.393,0,0,0,.207-.207.388.388,0,0,0,.031-.152v-1.169a.39.39,0,0,0-.39-.39" transform="translate(-27.936 -48.379)" fill="#f9c20a"/>
    <path id="Path_41975" data-name="Path 41975" d="M75.433,121.659H74.265a.39.39,0,0,0-.39.39v1.169a.39.39,0,0,0,.39.39h1.169a.39.39,0,0,0,.39-.39v-1.169a.39.39,0,0,0-.39-.39" transform="translate(-35.506 -58.472)" fill="#f9c20a"/>
    <path id="Path_41976" data-name="Path 41976" d="M75.433,111.159H74.265a.39.39,0,0,0-.39.39v1.169a.39.39,0,0,0,.39.39h1.169a.39.39,0,0,0,.39-.39v-1.169a.39.39,0,0,0-.39-.39" transform="translate(-35.506 -53.425)" fill="#f9c20a"/>
    <path id="Path_41977" data-name="Path 41977" d="M75.433,100.659H74.265a.39.39,0,0,0-.39.39v1.169a.388.388,0,0,0,.031.152.393.393,0,0,0,.207.207.388.388,0,0,0,.152.031h1.169a.388.388,0,0,0,.152-.031.393.393,0,0,0,.207-.207.388.388,0,0,0,.031-.152v-1.169a.39.39,0,0,0-.39-.39" transform="translate(-35.506 -48.379)" fill="#f9c20a"/>
    <path id="Path_41978" data-name="Path 41978" d="M91.183,121.659H90.015a.39.39,0,0,0-.39.39v1.169a.39.39,0,0,0,.39.39h1.169a.39.39,0,0,0,.39-.39v-1.169a.39.39,0,0,0-.39-.39" transform="translate(-43.076 -58.472)" fill="#f9c20a"/>
    <path id="Path_41979" data-name="Path 41979" d="M91.183,111.159H90.015a.39.39,0,0,0-.39.39v1.169a.39.39,0,0,0,.39.39h1.169a.39.39,0,0,0,.39-.39v-1.169a.39.39,0,0,0-.39-.39" transform="translate(-43.076 -53.425)" fill="#f9c20a"/>
    <path id="Path_41980" data-name="Path 41980" d="M91.183,100.659H90.015a.39.39,0,0,0-.39.39v1.169a.388.388,0,0,0,.031.152.393.393,0,0,0,.207.207.388.388,0,0,0,.152.031h1.169a.388.388,0,0,0,.152-.031.393.393,0,0,0,.207-.207.388.388,0,0,0,.031-.152v-1.169a.39.39,0,0,0-.39-.39" transform="translate(-43.076 -48.379)" fill="#f9c20a"/>
    <path id="Path_41981" data-name="Path 41981" d="M106.933,121.659h-1.169a.39.39,0,0,0-.39.39v1.169a.39.39,0,0,0,.39.39h1.169a.39.39,0,0,0,.39-.39v-1.169a.39.39,0,0,0-.39-.39" transform="translate(-50.646 -58.472)" fill="#f9c20a"/>
    <path id="Path_41982" data-name="Path 41982" d="M106.933,111.159h-1.169a.39.39,0,0,0-.39.39v1.169a.39.39,0,0,0,.39.39h1.169a.39.39,0,0,0,.39-.39v-1.169a.39.39,0,0,0-.39-.39" transform="translate(-50.646 -53.425)" fill="#f9c20a"/>
    <path id="Path_41983" data-name="Path 41983" d="M106.933,100.659h-1.169a.39.39,0,0,0-.39.39v1.169a.388.388,0,0,0,.031.152.393.393,0,0,0,.207.207.388.388,0,0,0,.152.031h1.169a.388.388,0,0,0,.152-.031.393.393,0,0,0,.207-.207.388.388,0,0,0,.031-.152v-1.169a.39.39,0,0,0-.39-.39" transform="translate(-50.646 -48.379)" fill="#f9c20a"/>
    <path id="Path_41984" data-name="Path 41984" d="M122.683,121.659h-1.169a.39.39,0,0,0-.39.39v1.169a.39.39,0,0,0,.39.39h1.169a.39.39,0,0,0,.39-.39v-1.169a.39.39,0,0,0-.39-.39" transform="translate(-58.215 -58.472)" fill="#f9c20a"/>
    <path id="Path_41985" data-name="Path 41985" d="M122.683,111.159h-1.169a.39.39,0,0,0-.39.39v1.169a.39.39,0,0,0,.39.39h1.169a.39.39,0,0,0,.39-.39v-1.169a.39.39,0,0,0-.39-.39" transform="translate(-58.215 -53.425)" fill="#f9c20a"/>
    <path id="Path_41986" data-name="Path 41986" d="M122.683,100.659h-1.169a.39.39,0,0,0-.39.39v1.169a.388.388,0,0,0,.031.152.393.393,0,0,0,.207.207.388.388,0,0,0,.152.031h1.169a.388.388,0,0,0,.152-.031.393.393,0,0,0,.207-.207.388.388,0,0,0,.031-.152v-1.169a.39.39,0,0,0-.39-.39" transform="translate(-58.215 -48.379)" fill="#f9c20a"/>
    <path id="Path_41987" data-name="Path 41987" d="M138.433,121.659h-1.169a.39.39,0,0,0-.39.39v1.169a.39.39,0,0,0,.39.39h1.169a.39.39,0,0,0,.39-.39v-1.169a.39.39,0,0,0-.39-.39" transform="translate(-65.785 -58.472)" fill="#f9c20a"/>
    <path id="Path_41988" data-name="Path 41988" d="M138.433,111.159h-1.169a.39.39,0,0,0-.39.39v1.169a.39.39,0,0,0,.39.39h1.169a.39.39,0,0,0,.39-.39v-1.169a.39.39,0,0,0-.39-.39" transform="translate(-65.785 -53.425)" fill="#f9c20a"/>
    <path id="Path_41989" data-name="Path 41989" d="M138.433,100.659h-1.169a.39.39,0,0,0-.39.39v1.169a.388.388,0,0,0,.031.152.393.393,0,0,0,.207.207.388.388,0,0,0,.152.031h1.169a.388.388,0,0,0,.152-.031.393.393,0,0,0,.207-.207.388.388,0,0,0,.031-.152v-1.169a.39.39,0,0,0-.39-.39" transform="translate(-65.785 -48.379)" fill="#f9c20a"/>
    <path id="Path_41990" data-name="Path 41990" d="M15.765,164.107h1.169a.39.39,0,0,0,.39-.39v-1.169a.39.39,0,0,0-.39-.39H15.765a.39.39,0,0,0-.39.39v1.169a.39.39,0,0,0,.39.39" transform="translate(-7.39 -77.937)" fill="#f9c20a"/>
    <path id="Path_41991" data-name="Path 41991" d="M15.765,144.982h1.169a.39.39,0,0,0,.39-.39v-1.169a.39.39,0,0,0-.39-.39H15.765a.39.39,0,0,0-.39.39v1.169a.39.39,0,0,0,.39.39" transform="translate(-7.39 -68.745)" fill="#f9c20a"/>
    <path id="Path_41992" data-name="Path 41992" d="M16.933,123.909H15.765a.39.39,0,0,0-.39.39v1.169a.39.39,0,0,0,.39.39h1.169a.39.39,0,0,0,.39-.39V124.3a.39.39,0,0,0-.39-.39" transform="translate(-7.39 -59.553)" fill="#f9c20a"/>
    <path id="Path_41993" data-name="Path 41993" d="M15.765,106.732h1.169a.39.39,0,0,0,.39-.39v-1.169a.39.39,0,0,0-.39-.39H15.765a.39.39,0,0,0-.39.39v1.169a.39.39,0,0,0,.39.39" transform="translate(-7.39 -50.361)" fill="#f9c20a"/>
    <path id="Path_41994" data-name="Path 41994" d="M14.366,70.3a3.116,3.116,0,1,0,3.116,3.116A3.119,3.119,0,0,0,14.366,70.3m0,4.285a1.169,1.169,0,1,1,1.169-1.169,1.17,1.17,0,0,1-1.169,1.169" transform="translate(-5.407 -33.787)" fill="#f9c20a"/>
  </g>
</svg>
