<svg xmlns="http://www.w3.org/2000/svg" width="60" height="60" viewBox="0 0 60 60">
  <g id="fun-icon" transform="translate(-998 -2743)">
    <g id="Ellipse_21" data-name="Ellipse 21" transform="translate(998 2743)" fill="none" stroke="#d0e5ec" stroke-width="2" opacity="0">
      <circle cx="30" cy="30" r="30" stroke="none"/>
      <circle cx="30" cy="30" r="29" fill="none"/>
    </g>
    <g id="high-five" transform="translate(996.012 2747.145)">
      <path id="Path_42004" data-name="Path 42004" d="M40.427,39.912a1.05,1.05,0,0,1-.894-1.58l8.046-13.407c2.53-4.072,8.66-.4,6.258,3.756L52.271,31.29a1.043,1.043,0,0,1-1.79-1.072c.239-.538,1.88-2.772,1.787-3.377a1.569,1.569,0,0,0-2.9-.843L41.323,39.405A1.044,1.044,0,0,1,40.427,39.912Z" transform="translate(-12.704 -11.075)" fill="#f9c20a"/>
      <path id="Path_42005" data-name="Path 42005" d="M48.993,47.335a1.05,1.05,0,0,1-.894-1.58L54.656,34.83c2.483-4.079,8.683-.348,6.259,3.755L59.3,41.268a1.044,1.044,0,0,1-1.789-1.074c.569-1.222,3-3.687,1.075-4.826a1.58,1.58,0,0,0-2.144.535L49.888,46.828A1.042,1.042,0,0,1,48.993,47.335Z" transform="translate(-16.801 -15.816)" fill="#f9c20a"/>
      <path id="Path_42006" data-name="Path 42006" d="M25.661,62.654c-7.06-.075-14.6-6.277-12.474-14.707.343-.438.348-13.2.415-13.989.35-4.974,7.474-3.711,7.288.838l-.055,3.268,8.029-13.378c1.515-2.778,6.053-2.262,6.717.906.354,1.15-.576,3.817-1.834,3.112a1.033,1.033,0,0,1-.357-1.432,1.564,1.564,0,1,0-2.738-1.512l-10.026,16.7a1.049,1.049,0,0,1-1.938-.552l.115-7.158c.223-1.77-2.9-2.91-3.115-.764-.095,1.046-.044,13.769-.456,14.373-2.084,8,6.56,13.721,13.085,11.807a12.24,12.24,0,0,0,6.835-5.457,1.044,1.044,0,0,1,1.789,1.074A13.633,13.633,0,0,1,25.661,62.654Z" transform="translate(0 -10.943)" fill="#f9c20a"/>
      <path id="Path_42007" data-name="Path 42007" d="M56.383,66.108a1.05,1.05,0,0,1-.894-1.58l10.03-16.71a1.539,1.539,0,0,0-.536-2.144,1.564,1.564,0,0,0-2.144.536l-4.948,8.243A1.044,1.044,0,0,1,56.1,53.379l4.947-8.243c1.741-3.123,6.838-1.742,6.776,1.818,1,.353-10.3,17.9-10.547,18.649a1.041,1.041,0,0,1-.9.507Z" transform="translate(-20.336 -20.758)" fill="#f9c20a"/>
      <path id="Path_42008" data-name="Path 42008" d="M35.974,21.574a1.088,1.088,0,0,1-1-.7L33.6,18.354c-2.2-5.182,5.067-7.962,7.18-2.082l1.336,2.456a1.044,1.044,0,0,1-1.835.993c-.5-.918-1.618-2.972-2.107-3.866a1.571,1.571,0,0,0-2.933.71C35.092,17.922,38.7,21.043,35.974,21.574Z" transform="translate(-9.743 -6.205)" fill="#f9c20a"/>
      <path id="Path_42009" data-name="Path 42009" d="M29.846,31.3c-1.028.168-1.938-2.726-2.42-3.292-2.288-4.3,4.311-7.717,6.488-3.342l1.657,3.039a1.044,1.044,0,0,1-1.835.994L31.992,25.5a1.566,1.566,0,0,0-2.918.758C28.942,27.615,32.581,30.768,29.846,31.3Z" transform="translate(-6.758 -10.827)" fill="#f9c20a"/>
      <path id="Path_42010" data-name="Path 42010" d="M58.108,60.9c-1.234-.128-4.427.045-4.046-1.83a1.045,1.045,0,0,1,1.312-.677c4.278,1.106,8.014-.1,11.568-3.723,2.075-2.073,2.049-6.057,1.52-9.32,0,0,.312-12.691.312-12.691a1.347,1.347,0,0,0-2.144-1,1.887,1.887,0,0,0-1,1.635l-.108,4.583a1.043,1.043,0,0,1-2.086-.025l.108-4.605c-.075-3.118,4.162-5.283,6.407-2.893a3.269,3.269,0,0,1,.912,2.355l-.31,12.626c.688,3.9.36,8.2-2.038,10.708A14.06,14.06,0,0,1,58.108,60.9Z" transform="translate(-19.71 -14.034)" fill="#f9c20a"/>
      <path id="Path_42011" data-name="Path 42011" d="M52.667,20.5a1.043,1.043,0,0,1-.915-.541l-2.122-3.884a1.685,1.685,0,0,0-1.823-.855,1.555,1.555,0,0,0-1.152,1.637c.155.7.656,1.557-.241,2.031-1.737.693-2.1-2.047-1.7-3.192.791-3.115,5.348-3.468,6.749-.62l2.119,3.878a1.05,1.05,0,0,1-.913,1.547Zm-8.1-3.615s0,0,0,.011A.108.108,0,0,1,44.569,16.888Z" transform="translate(-15.183 -6.284)" fill="#f9c20a"/>
      <path id="Path_42012" data-name="Path 42012" d="M28.747,39.245a1.042,1.042,0,0,1-.917-.545l-1.7-3.127A1.553,1.553,0,0,0,24,34.95a1.5,1.5,0,0,0-.785,1.617,1.044,1.044,0,0,1-2.037.453c-.855-4.008,4.858-6.057,6.778-2.446l1.7,3.128a1.051,1.051,0,0,1-.916,1.543Z" transform="translate(-3.958 -15.642)" fill="#f9c20a"/>
      <path id="Path_42013" data-name="Path 42013" d="M27.153,50.168a1.043,1.043,0,0,1-.916-.542L24.393,46.26a1.054,1.054,0,0,1,.915-1.55,1.042,1.042,0,0,1,.962.634l1.8,3.28A1.05,1.05,0,0,1,27.153,50.168Z" transform="translate(-5.473 -21.385)" fill="#f9c20a"/>
      <path id="Path_42014" data-name="Path 42014" d="M48.322,4.869a1.043,1.043,0,0,1-1.008-.777L46.58,1.31A1.043,1.043,0,0,1,48.6.778l.734,2.782A1.048,1.048,0,0,1,48.322,4.869Z" transform="translate(-16.13)" fill="#f9c20a"/>
      <path id="Path_42015" data-name="Path 42015" d="M72.789,17.248a1.043,1.043,0,0,1-.262-2.053l2.784-.724a1.043,1.043,0,0,1,.524,2.019S72.877,17.248,72.789,17.248Z" transform="translate(-28.184 -6.905)" fill="#f9c20a"/>
      <path id="Path_42016" data-name="Path 42016" d="M63.651,5.386A1.049,1.049,0,0,1,62.707,3.9L64.243.6a1.043,1.043,0,1,1,1.891.882L64.6,4.783A1.043,1.043,0,0,1,63.651,5.386Z" transform="translate(-23.812 -0.001)" fill="#f9c20a"/>
    </g>
  </g>
</svg>
