<svg xmlns="http://www.w3.org/2000/svg" width="57.714" height="55.909" viewBox="0 0 57.714 55.909"><path d="M60.216,50.261a20.534,20.534,0,1,0-32.3-2.867L22.939,52.22a2.715,2.715,0,0,0-3.357.332L8.817,63a2.716,2.716,0,0,0-.058,3.836l3.886,4.005h0a2.716,2.716,0,0,0,3.836.057L27.247,60.451a2.72,2.72,0,0,0,.434-3.347l4.812-4.67a20.414,20.414,0,0,0,6.23,3.348l-1.033,1.79a5.043,5.043,0,0,0,4.368,7.565H60.069a5.043,5.043,0,0,0,4.368-7.565ZM25.95,59.115,15.186,69.56a.852.852,0,0,1-1.2-.018L10.1,65.537a.852.852,0,0,1,.018-1.2L20.879,53.888a.856.856,0,0,1,1.2.018l3.886,4.005a.857.857,0,0,1-.018,1.2Zm.485-3.4-2.147-2.213L29,48.93a20.63,20.63,0,0,0,2.075,2.283Zm.071-19.434A18.671,18.671,0,1,1,59.238,48.567l-1.476-2.556A15.9,15.9,0,1,0,41.1,51.663l-1.425,2.469a18.69,18.69,0,0,1-13.17-17.847Zm15.564,13.7a14.048,14.048,0,1,1,14.674-5.736l-1.313-2.275a5.043,5.043,0,0,0-8.735,0Zm20.754,11.7a3.149,3.149,0,0,1-2.755,1.591H42.057A3.182,3.182,0,0,1,39.3,58.5l9.006-15.6a3.182,3.182,0,0,1,5.511,0l9.006,15.6A3.149,3.149,0,0,1,62.824,61.684ZM51.063,56.933A2,2,0,0,0,53.069,55l.272-7.537a2.008,2.008,0,0,0-2.006-2.08h-.544a2.007,2.007,0,0,0-2.006,2.08L49.057,55A2,2,0,0,0,51.063,56.933Zm-.377-9.645a.117.117,0,0,1,.1-.044h.544a.146.146,0,0,1,.146.151l-.272,7.536a.146.146,0,0,1-.291,0l-.272-7.537A.117.117,0,0,1,50.686,47.288Zm.377,10.246a2.31,2.31,0,1,0,2.31,2.31A2.313,2.313,0,0,0,51.063,57.534Zm0,2.758a.448.448,0,1,1,.448-.448A.449.449,0,0,1,51.063,60.292Z" transform="translate(-7.995 -15.752)" fill="#f9c20a"/></svg>