<svg xmlns="http://www.w3.org/2000/svg" width="60" height="60" viewBox="0 0 60 60">
  <g id="objectivity-icon" transform="translate(-998 -2743)">
    <g id="Ellipse_21" data-name="Ellipse 21" transform="translate(998 2743)" fill="none" stroke="#f9c20a" stroke-width="2" opacity="0">
      <circle cx="30" cy="30" r="30" stroke="none"/>
      <circle cx="30" cy="30" r="29" fill="none"/>
    </g>
    <g id="rotate" transform="translate(974.552 2697.764)">
      <g id="Group_144294" data-name="Group 144294" transform="translate(37.038 51.692)">
        <path id="Path_42017" data-name="Path 42017" d="M127.811,160.1l-16.44-10.328V129.59l16.44,10.328Z" transform="translate(-111.371 -120.145)" fill="none" stroke="#f9c20a" stroke-linecap="round" stroke-linejoin="round" stroke-miterlimit="10" stroke-width="2"/>
        <path id="Path_42018" data-name="Path 42018" d="M246.954,160.1l16.44-10.328V129.59l-16.44,10.328Z" transform="translate(-230.514 -120.145)" fill="none" stroke="#f9c20a" stroke-linecap="round" stroke-linejoin="round" stroke-miterlimit="10" stroke-width="2"/>
        <path id="Path_42019" data-name="Path 42019" d="M111.371,61.137l16.44-9.445,16.44,9.445" transform="translate(-111.371 -51.692)" fill="none" stroke="#f9c20a" stroke-linecap="round" stroke-linejoin="round" stroke-miterlimit="10" stroke-width="2"/>
      </g>
      <path id="Path_42020" data-name="Path 42020" d="M111.371,256.147l10.7-5.51" transform="translate(-74.333 -174.823)" fill="none" stroke="#f9c20a" stroke-linecap="round" stroke-linejoin="round" stroke-miterlimit="10" stroke-width="2"/>
      <path id="Path_42021" data-name="Path 42021" d="M291.435,250.637l11.046,5.51" transform="translate(-232.564 -174.823)" fill="none" stroke="#f9c20a" stroke-linecap="round" stroke-linejoin="round" stroke-miterlimit="10" stroke-width="2"/>
      <path id="Path_42022" data-name="Path 42022" d="M246.5,52V65.823" transform="translate(-193.078 -0.271)" fill="none" stroke="#f9c20a" stroke-linecap="round" stroke-linejoin="round" stroke-miterlimit="10" stroke-width="2"/>
      <path id="Path_42023" data-name="Path 42023" d="M75.135,268.648c3.134,2.058,4.98,4.581,4.98,7.307,0,6.934-11.939,12.555-26.667,12.555s-26.667-5.621-26.667-12.555c0-3.208,2.555-6.135,6.76-8.354" transform="translate(0 -189.73)" fill="none" stroke="#f9c20a" stroke-linecap="round" stroke-linejoin="round" stroke-miterlimit="10" stroke-width="2"/>
      <path id="Path_42024" data-name="Path 42024" d="M418.018,273.905,416.3,269.8l5.349-1.045" transform="translate(-342.289 -190.74)" fill="none" stroke="#f9c20a" stroke-linecap="round" stroke-linejoin="round" stroke-miterlimit="10" stroke-width="2"/>
    </g>
  </g>
</svg>
