<svg xmlns="http://www.w3.org/2000/svg" xmlns:xlink="http://www.w3.org/1999/xlink" width="60" height="60" viewBox="0 0 60 60">
  <defs>
    <clipPath id="clip-path">
      <rect id="Rectangle_2233" data-name="Rectangle 2233" width="54.501" height="58.796" fill="none" stroke="#f9c20a" stroke-width="2"/>
    </clipPath>
  </defs>
  <g id="personal-reward" transform="translate(-579 -2912)">
    <g id="Ellipse_19" data-name="Ellipse 19" transform="translate(579 2912)" fill="none" stroke="#f9c20a" stroke-width="2" opacity="0">
      <circle cx="30" cy="30" r="30" stroke="none"/>
      <circle cx="30" cy="30" r="29" fill="none"/>
    </g>
    <g id="Group_144293" data-name="Group 144293" transform="translate(584.75 2915.178)">
      <g id="Group_144293-2" data-name="Group 144293" transform="translate(-3 -2)" clip-path="url(#clip-path)">
        <path id="Path_42002" data-name="Path 42002" d="M32.459,30.03a.855.855,0,0,0-.7.1,14.2,14.2,0,0,1-15.095,0c-.5-.312-1.066.042-1.563.174L6.689,33.1A8.31,8.31,0,0,0,1,40.99v7.67c0,2.554,2.007,5.525,4.595,5.525H29.15a4.537,4.537,0,0,1-.894-3.891l.668-2.928-2.266-1.989a4.506,4.506,0,0,1-1.338-4.88,4.584,4.584,0,0,1,3.953-3.154l3-.269,1.182-2.77A4.556,4.556,0,0,1,37.1,31.55C36.411,31.335,33.1,30.192,32.459,30.03Z" transform="translate(2.846 0.767)" fill="none" stroke="#f9c20a" stroke-linecap="round" stroke-linejoin="round" stroke-width="2"/>
        <circle id="Ellipse_23" data-name="Ellipse 23" cx="10.884" cy="10.884" r="10.884" transform="translate(16.176 5.365)" fill="none" stroke="#f9c20a" stroke-miterlimit="10" stroke-width="2"/>
        <path id="Path_42003" data-name="Path 42003" d="M46.835,43.683a2.3,2.3,0,0,0-1.3-4.012l-2.7-.244a.9.9,0,0,1-.746-.543L41.026,36.4a2.308,2.308,0,0,0-4.222,0L35.74,38.884a.9.9,0,0,1-.746.543l-2.7.244A2.3,2.3,0,0,0,31,43.683l2.034,1.783a.894.894,0,0,1,.285.877l-.6,2.64a2.3,2.3,0,0,0,3.413,2.48l2.326-1.386a.9.9,0,0,1,.92,0L41.7,51.463a2.3,2.3,0,0,0,3.413-2.48l-.6-2.64a.894.894,0,0,1,.285-.877Z" transform="translate(2.86 1.671)" fill="none" stroke="#f9c20a" stroke-miterlimit="10" stroke-width="2"/>
      </g>
    </g>
  </g>
</svg>
