<svg xmlns="http://www.w3.org/2000/svg" width="12.486" height="12.486" viewBox="0 0 12.486 12.486">
  <path id="Icon_awesome-linkedin-in" data-name="Icon awesome-linkedin-in" d="M2.795,12.486H.206V4.15H2.795ZM1.5,3.013A1.506,1.506,0,1,1,3,1.5,1.512,1.512,0,0,1,1.5,3.013Zm10.984,9.473H9.9V8.428c0-.967-.02-2.207-1.346-2.207C7.208,6.221,7,7.272,7,8.359v4.128H4.416V4.15H6.9V5.287h.036A2.72,2.72,0,0,1,9.384,3.941c2.62,0,3.1,1.725,3.1,3.966v4.579Z" transform="translate(0 -0.001)" fill="#002749"/>
</svg>
