<svg xmlns="http://www.w3.org/2000/svg" width="16.22" height="11.404" viewBox="0 0 16.22 11.404">
  <path id="Icon_awesome-youtube" data-name="Icon awesome-youtube" d="M16.931,6.284A2.038,2.038,0,0,0,15.5,4.841,48.163,48.163,0,0,0,9.16,4.5a48.163,48.163,0,0,0-6.337.341A2.038,2.038,0,0,0,1.389,6.284a21.379,21.379,0,0,0-.339,3.929,21.379,21.379,0,0,0,.339,3.929,2.008,2.008,0,0,0,1.434,1.42A48.163,48.163,0,0,0,9.16,15.9a48.163,48.163,0,0,0,6.337-.341,2.008,2.008,0,0,0,1.434-1.42,21.38,21.38,0,0,0,.339-3.929,21.38,21.38,0,0,0-.339-3.929ZM7.5,12.625V7.8l4.239,2.412L7.5,12.625Z" transform="translate(-1.05 -4.5)" fill="#002749"/>
</svg>
