<svg xmlns="http://www.w3.org/2000/svg" width="14.471" height="14.471" viewBox="0 0 14.471 14.471">
  <path id="Icon_awesome-instagram" data-name="Icon awesome-instagram" d="M7.232,5.763a3.71,3.71,0,1,0,3.709,3.71A3.7,3.7,0,0,0,7.232,5.763Zm0,6.122A2.412,2.412,0,1,1,9.643,9.473,2.416,2.416,0,0,1,7.232,11.885Zm4.726-6.274a.865.865,0,1,1-.865-.865A.863.863,0,0,1,11.958,5.611Zm2.457.878a4.283,4.283,0,0,0-1.169-3.032,4.309,4.309,0,0,0-3.031-1.169c-1.194-.068-4.775-.068-5.969,0A4.3,4.3,0,0,0,1.214,3.454,4.3,4.3,0,0,0,.046,6.486c-.068,1.195-.068,4.776,0,5.97a4.283,4.283,0,0,0,1.169,3.032,4.315,4.315,0,0,0,3.031,1.169c1.194.068,4.775.068,5.969,0a4.281,4.281,0,0,0,3.031-1.169,4.311,4.311,0,0,0,1.169-3.032c.068-1.195.068-4.773,0-5.967Zm-1.543,7.249A2.442,2.442,0,0,1,11.5,15.114a15.941,15.941,0,0,1-4.265.291,16.065,16.065,0,0,1-4.265-.291,2.442,2.442,0,0,1-1.375-1.376A15.952,15.952,0,0,1,1.3,9.473a16.076,16.076,0,0,1,.291-4.266A2.442,2.442,0,0,1,2.967,3.832a15.941,15.941,0,0,1,4.265-.291,16.065,16.065,0,0,1,4.265.291,2.442,2.442,0,0,1,1.375,1.376,15.952,15.952,0,0,1,.291,4.266A15.942,15.942,0,0,1,12.872,13.739Z" transform="translate(0.005 -2.238)" fill="#002749"/>
</svg>
