<svg xmlns="http://www.w3.org/2000/svg" xmlns:xlink="http://www.w3.org/1999/xlink" width="187" height="103" viewBox="0 0 187 103">
  <defs>
    <clipPath id="clip-path">
      <rect id="Rectangle_1835" data-name="Rectangle 1835" width="187" height="103" transform="translate(-2051 4241)" fill="#fff"/>
    </clipPath>
    <clipPath id="clip-path-2">
      <rect id="Rectangle_1834" data-name="Rectangle 1834" width="186.808" height="103" fill="none"/>
    </clipPath>
  </defs>
  <g id="Mask_Group_16" data-name="Mask Group 16" transform="translate(2051 -4241)" clip-path="url(#clip-path)">
    <g id="Group_142873" data-name="Group 142873" transform="translate(-2051 4241)">
      <g id="Group_142872" data-name="Group 142872" clip-path="url(#clip-path-2)">
        <path id="Path_41632" data-name="Path 41632" d="M10.329,99.973V55.7c-.8-.912-1.626-1.491-1.852-2.249C8.349,53.022,9.2,52.3,9.831,51.4c-.39-2.726.907-5.077,3.518-6.81.683-.453,1.275-1.042,1.946-1.515,1.1-.774,2.018-1.55,1.758-3.152a1.237,1.237,0,0,1,1.474-1.505c.554.12,1.384,1,1.339,1.472A2.95,2.95,0,0,0,21.612,42.9c.736.46,1.383,1.065,2.121,1.522,2.759,1.706,4.25,4.043,3.712,7.434l.408-.2c.37.69,1.071,1.411,1.009,2.06-.055.571-.964,1.06-1.5,1.585l-.318-.219V62.4H48.034V55.622c-.863-.812-1.8-1.314-2.02-2.035-.147-.483.728-1.277,1.352-1.814-.32-3.406,1.421-5.727,4.145-7.548.681-.456,1.263-1.063,1.95-1.508a2.419,2.419,0,0,0,1.282-2.509c-.118-1.047.339-1.878,1.514-1.841a1.412,1.412,0,0,1,1.389,1.813,2.335,2.335,0,0,0,1.324,2.462c1.208.8,2.336,1.722,3.523,2.557a6.317,6.317,0,0,1,2.769,5.6,2.114,2.114,0,0,0,.181,1.217c1.458,1.853,1.378,2.328-.707,3.137v2.332a32.713,32.713,0,0,1,3.521-2.371,5.492,5.492,0,0,0,3.393-6.2c-.283-2.536,1.486-4.044,3.88-4.886,0-2.264.014-4.525-.017-6.785a1.341,1.341,0,0,0-.382-.856c-3.653-3.505-4.394-7.773-2.83-12.36a15.887,15.887,0,0,0,.913-5.775,3.952,3.952,0,0,1,.059-1.719c.273-.562.885-1.315,1.362-1.323.5-.009,1.146.691,1.462,1.236A4.91,4.91,0,0,1,76.26,18.3c3.432-2.12,6.688-4.283,10.1-6.176,1.718-.955,2.429-2.079,2.176-4a21.2,21.2,0,0,1-.02-3.335A4.894,4.894,0,0,1,98.3,4.8c0,.145,0,.29,0,.435.046,1.828-.478,3.967.3,5.394.75,1.374,2.84,2.024,4.356,2.97,2.457,1.533,4.925,3.048,7.6,4.7a4.8,4.8,0,0,1,.147-1.732c.3-.564.939-1.4,1.334-1.353.575.073,1.148.772,1.55,1.329.209.289.064.845.056,1.28a19.249,19.249,0,0,0,.955,6.5c1.471,4.481.682,8.679-2.915,12.082a1.553,1.553,0,0,0-.344,1.017c-.032,1.935-.058,3.873.02,5.8a1.564,1.564,0,0,0,.769,1.112c2.115,1,3.366,2.619,3.064,4.932a4.854,4.854,0,0,0,2.948,5.545,37.311,37.311,0,0,1,3.9,2.649v-2.28l-.236.25c-.642-.641-1.519-1.19-1.823-1.963-.147-.374.786-1.171,1.23-1.776l.337.182c0-.474-.012-.947,0-1.42A6.219,6.219,0,0,1,123.9,45.52c1.1-.874,2.165-1.792,3.314-2.592a2.893,2.893,0,0,0,1.563-2.956,1.332,1.332,0,0,1,1.438-1.61,1.348,1.348,0,0,1,1.436,1.625c-.208,1.465.59,2.185,1.646,2.886,1.167.775,2.28,1.635,3.4,2.474a6.109,6.109,0,0,1,2.557,5.261,1.852,1.852,0,0,0,.716,1.837c1.113.849.564,2.02-1.214,2.688v7.3h21.032V55.663c-.915-.868-1.86-1.375-2.064-2.093-.14-.49.753-1.275,1.377-1.81-.324-3.325,1.316-5.65,4.018-7.446.643-.427,1.191-1,1.836-1.419a2.749,2.749,0,0,0,1.512-2.846,1.468,1.468,0,1,1,2.9-.006,2.527,2.527,0,0,0,1.447,2.7c1.179.754,2.258,1.664,3.406,2.469a6.384,6.384,0,0,1,2.766,5.606,2.114,2.114,0,0,0,.189,1.211c1.447,1.81,1.381,2.215-.718,3.174V99.879c.645.033,1.248.087,1.853.09,2.274.013,4.548-.006,6.822.021.919.011,1.651.406,1.674,1.427.024,1.08-.679,1.527-1.688,1.565-.338.013-.677,0-1.016,0q-90.651,0-181.3,0c-1.18,0-2.6.287-2.791-1.486-.12-1.085.736-1.521,2.757-1.523,2.465,0,4.93,0,7.561,0M98.085,33.379a4.062,4.062,0,0,0,.692.149c3.626.01,7.253.048,10.877-.03a2.076,2.076,0,0,0,1.4-.966,9.068,9.068,0,0,0-3.088-12.315c-2.6-1.679-5.337-3.147-7.858-4.929a10.182,10.182,0,0,0-7.561-2.118c-.941.132-2.055-.07-2.8.368C85.9,15.78,82.087,18.073,78.4,20.556a9.016,9.016,0,0,0-2.755,11.852,1.9,1.9,0,0,0,1.927,1.159c3.238-.061,6.478-.019,9.718-.028.456,0,.912-.068,1.427-.109,0-.937.015-1.708,0-2.478a6.417,6.417,0,0,1,3.567-6.025,2.68,2.68,0,0,1,2.237-.01,6.386,6.386,0,0,1,3.568,6.023c-.019.807,0,1.615,0,2.441M48.05,72.631H27.067v9.286H48.05Zm111.76.033H138.772v9.215H159.81Zm-21,12.359V94.48h9.038c0-1.1.014-2.109,0-3.114s.215-1.927,1.414-1.949c1.261-.023,1.573.885,1.557,1.979-.015,1.036,0,2.072,0,3.1h8.942V85.023ZM27.032,94.46h8.98c0-1.179-.01-2.239,0-3.3.012-.991.4-1.756,1.5-1.752s1.467.779,1.475,1.767c.009,1.093,0,2.186,0,3.319h9.027v-9.45H27.032Zm51.6-57.875v7.353h4.712c0-1.085-.02-2.088.006-3.089.024-.947.479-1.625,1.473-1.624s1.445.672,1.461,1.627c.016,1,0,2,0,3.086h5.648c0-1.078,0-2.078,0-3.079,0-.976.471-1.615,1.451-1.626s1.469.623,1.478,1.6c.009,1,0,2.005,0,3.1H100.5c0-.861.008-1.667,0-2.474-.014-1.079.082-2.2,1.459-2.217s1.539,1.053,1.506,2.163c-.024.812,0,1.625,0,2.528h4.73V36.585ZM74.51,51.021h37.651c.447-3.381-.1-4.037-3.276-4.037H84.235c-2.465,0-4.93-.019-7.395.008-1.581.017-2.276.734-2.328,2.311-.017.526,0,1.053,0,1.718M122.076,92.15H64.784V94.5h57.291ZM57.74,99.883h71.067V97.816H57.74ZM23.9,55.17H13.469V69.52H23.9ZM162.86,69.5h10.5V55.19h-10.5ZM115.907,57.18l.079-.276a20.661,20.661,0,0,1-1.874-1.326,6.658,6.658,0,0,0-4.784-1.538c-10.585.078-21.174.15-31.756-.036-2.9-.051-4.67,1.467-7.01,3.176h1.8c4.979,0,9.958-.052,14.936.028,1.848.03,3.407-.1,4.67-1.77.962-1.274,1.7-1.125,2.915.015.388.362.7.813,1.119,1.131a2.318,2.318,0,0,0,1.217.571c6.229.036,12.458.025,18.687.025m9.28,8.375V69.5h10.447V55.191H125.157V57c2.045.518,2.17.68,2.172,2.769,0,1.11-.06,2.225.015,3.33.1,1.522-.418,2.453-2.158,2.456M51.163,55.135V69.5H61.646V65.69c-2.032-.553-2.168-.729-2.173-2.786q0-1.52,0-3.04c0-2.124.128-2.291,2.13-2.889V55.135ZM173.41,97.63H132v2.216H173.41ZM13.477,99.861H54.623V97.585H13.477Zm159.91-27.234H162.914v9.266h10.474ZM51.14,94.455H61.625V85.062H51.14Zm84.493-21.789H125.189v9.242h10.444ZM51.175,81.894H61.587V72.623H51.175ZM23.883,72.608H13.443v9.3H23.883ZM135.658,85.059H125.211v9.4h10.447Zm-28.813,3.985h9.8V79.98h-9.8Zm-26.9-9.055H70.212V89.06h9.734Zm18.343,0H88.522v9.073h9.766Zm75.05,14.535V85.084H162.9v9.389h3.71c0-1.168-.016-2.229,0-3.289.019-.976.386-1.765,1.485-1.771s1.482.742,1.481,1.747c0,1.1,0,2.2,0,3.361ZM23.915,85.076H13.485V94.5h3.748c0-1.027.011-1.981,0-2.936-.017-1.092.1-2.181,1.506-2.143,1.383.038,1.475,1.14,1.464,2.219-.01.946,0,1.892,0,2.856h3.717Zm114.814-15.6h21.032V65.637H138.729ZM48,65.609H27.072v3.941H48Zm76.291-5.319H98.16v2.148h26.133ZM62.6,62.415H88.666V60.29H62.6ZM167.947,44.3a49.6,49.6,0,0,0-4.376,3.525,5.916,5.916,0,0,0-1.315,2.744c-.217.9.235,1.473,1.379,1.442,2.892-.078,5.788-.023,8.682-.026,1.531,0,2.031-.509,1.644-1.987a4.46,4.46,0,0,0-1.274-2.173c-1.46-1.246-3.077-2.309-4.739-3.526m-32.012,7.686c.588-1.695.4-3.09-.7-3.974-1.6-1.295-3.306-2.467-5-3.715a44.647,44.647,0,0,0-4.566,3.7,6.22,6.22,0,0,0-1.094,2.971c-.054.255.649.962,1.015.97,3.419.076,6.841.045,10.342.045M56.233,44.3c-1.567,1.236-3.118,2.316-4.48,3.6a4.8,4.8,0,0,0-1.214,2.361c-.232,1.03.053,1.816,1.493,1.76,2.794-.108,5.6-.03,8.393-.032,1.79,0,2.321-.66,1.729-2.385a4.314,4.314,0,0,0-1.272-1.857c-1.452-1.189-3.012-2.246-4.65-3.443m-37.711,0c-1.573,1.242-3.174,2.339-4.549,3.668A5.048,5.048,0,0,0,12.832,50.5c-.2.974.217,1.562,1.449,1.518,2.793-.1,5.593-.03,8.39-.031,1.816,0,2.318-.608,1.791-2.352a3.569,3.569,0,0,0-1.032-1.685c-1.565-1.267-3.226-2.416-4.908-3.653M64.789,89.036h2.293V65.594H64.789Zm20.6-23.446H83.117V89.074h2.269Zm18.339,0H101.47v23.49h2.256Zm18.333.015H119.84V89.063h2.219ZM106.834,76.845h9.825V72.629h-9.825Zm-18.378-.038h9.851V72.667H88.456Zm-18.286.015h9.764V72.647H70.17Zm46.5-11.217h-9.8v3.91h9.8ZM88.468,69.5h9.8V65.641h-9.8ZM79.95,65.616h-9.71v3.9h9.71ZM95.305,10.131c0-1.954.066-3.781-.025-5.6a1.641,1.641,0,0,0-1.9-1.571c-.98.014-1.76.45-1.8,1.493-.078,1.863-.022,3.732-.022,5.679Zm-.183,23.311c-.138-2.11.66-4.37-1.772-5.673-2.224,1.495-1.624,3.616-1.6,5.673Zm-.077,29a4.1,4.1,0,0,0-1.719-4.206c-1.129,1.257-2.008,2.47-1.488,4.206Z" transform="translate(0 0.001)" fill="#00dbef"/>
        <path id="Path_41633" data-name="Path 41633" d="M127.361,263.96c-.575.364-1.119.954-1.734,1.04a1.155,1.155,0,0,1-1.341-1.437,2.147,2.147,0,0,1,1.454-1.351c.507-.05,1.092.7,1.643,1.1q-.011.325-.021.65" transform="translate(-88.174 -186.084)" fill="#00dbef"/>
        <path id="Path_41634" data-name="Path 41634" d="M510.669,265.055c-.372-.562-1.091-1.17-1.024-1.674.073-.55.874-1,1.357-1.5.494.486,1.318.93,1.386,1.47.065.514-.66,1.127-1.038,1.7l-.681,0" transform="translate(-361.682 -185.854)" fill="#00dbef"/>
        <path id="Path_41635" data-name="Path 41635" d="M59.248,207.052a5.257,5.257,0,0,1,.048-1.857c.214-.528.842-1.264,1.252-1.242a1.969,1.969,0,0,1,1.509,1.115,12.008,12.008,0,0,1,.024,3.869c-.081.512-.992,1.325-1.388,1.253-.554-.1-1.122-.834-1.413-1.429a4.255,4.255,0,0,1-.046-1.71h.012" transform="translate(-41.989 -144.741)" fill="#00dbef"/>
        <path id="Path_41636" data-name="Path 41636" d="M576.734,207.029a4.855,4.855,0,0,1-.05,1.855c-.255.563-.9,1.3-1.38,1.311a1.935,1.935,0,0,1-1.433-1.232,11.141,11.141,0,0,1-.018-3.731c.086-.52.954-1.329,1.369-1.274.558.074,1.17.779,1.479,1.362.239.451.048,1.131.048,1.709h-.014" transform="translate(-407.146 -144.743)" fill="#00dbef"/>
        <path id="Path_41637" data-name="Path 41637" d="M444.053,207.01a4.415,4.415,0,0,1,.046-1.711c.261-.561.85-1.316,1.325-1.337a1.9,1.9,0,0,1,1.465,1.16,11.97,11.97,0,0,1,0,3.869,1.922,1.922,0,0,1-1.447,1.207c-.475-.011-1.1-.767-1.345-1.332a4.968,4.968,0,0,1-.048-1.856" transform="translate(-315.087 -144.747)" fill="#00dbef"/>
        <path id="Path_41638" data-name="Path 41638" d="M191.919,206.92a4.75,4.75,0,0,1-.051,1.855c-.262.559-.92,1.28-1.411,1.284a1.942,1.942,0,0,1-1.408-1.255,9.945,9.945,0,0,1-.022-3.588,2.2,2.2,0,0,1,1.423-1.423c.943-.183,1.442.585,1.484,1.536.023.53,0,1.061,0,1.591h-.019" transform="translate(-134.041 -144.609)" fill="#00dbef"/>
        <path id="Path_41639" data-name="Path 41639" d="M573.208,263.164c.556-.4,1.066-1.036,1.68-1.16.873-.177,1.444.455,1.461,1.371s-.5,1.582-1.389,1.459c-.616-.086-1.161-.68-1.738-1.047q-.007-.312-.014-.623" transform="translate(-406.794 -185.918)" fill="#00dbef"/>
        <path id="Path_41640" data-name="Path 41640" d="M190.569,303.512c.374.571,1.094,1.187,1.027,1.7-.072.556-.877,1.018-1.363,1.52-.488-.5-1.308-.963-1.369-1.511-.058-.525.671-1.138,1.054-1.712h.651" transform="translate(-134.031 -215.396)" fill="#00dbef"/>
        <path id="Path_41641" data-name="Path 41641" d="M446.072,261.094c.366.572,1.078,1.195,1,1.7a2.156,2.156,0,0,1-1.413,1.394,1.158,1.158,0,0,1-1.37-1.413c.107-.61.721-1.131,1.109-1.691l.672.009" transform="translate(-315.29 -185.287)" fill="#00dbef"/>
        <path id="Path_41642" data-name="Path 41642" d="M191.96,263.955c-.572.364-1.195,1.073-1.7,1-.537-.081-1.352-.924-1.33-1.4a1.986,1.986,0,0,1,1.405-1.349c.5-.058,1.092.683,1.644,1.072q-.01.34-.019.68" transform="translate(-134.079 -186.077)" fill="#00dbef"/>
        <path id="Path_41643" data-name="Path 41643" d="M62.64,263.915c-.569.378-1.1.982-1.715,1.08a1.133,1.133,0,0,1-1.348-1.412,2.142,2.142,0,0,1,1.409-1.378c.514-.053,1.11.683,1.67,1.072l-.016.638" transform="translate(-42.251 -186.08)" fill="#00dbef"/>
        <path id="Path_41644" data-name="Path 41644" d="M447.572,306.255c-.556.412-1.144,1.184-1.658,1.137a1.979,1.979,0,0,1-1.4-1.376,2,2,0,0,1,1.349-1.436c.5-.078,1.127.663,1.7,1.043q0,.317.008.633" transform="translate(-315.464 -216.15)" fill="#00dbef"/>
      </g>
    </g>
  </g>
</svg>
