<svg xmlns="http://www.w3.org/2000/svg" xmlns:xlink="http://www.w3.org/1999/xlink" width="119" height="103" viewBox="0 0 119 103">
  <defs>
    <clipPath id="clip-path">
      <rect id="Rectangle_1832" data-name="Rectangle 1832" width="119" height="103" transform="translate(-1953 4180)" fill="#fff"/>
    </clipPath>
    <clipPath id="clip-path-2">
      <rect id="Rectangle_1833" data-name="Rectangle 1833" width="119.153" height="103" fill="none"/>
    </clipPath>
  </defs>
  <g id="Mask_Group_15" data-name="Mask Group 15" transform="translate(1953 -4180)" clip-path="url(#clip-path)">
    <g id="Group_142871" data-name="Group 142871" transform="translate(-1953 4180)">
      <g id="Group_142870" data-name="Group 142870" clip-path="url(#clip-path-2)">
        <path id="Path_41627" data-name="Path 41627" d="M26.438,36.746c0-2.65,0-5.111,0-7.573,0-1.964.244-2.2,2.216-2.212.652,0,1.305,0,2.119,0,0-1.706,0-3.281,0-4.855,0-1.976.315-2.281,2.312-2.287.525,0,1.05,0,1.725,0,.029-.547.073-1.013.074-1.48.007-3.089,0-6.179.007-9.268.006-1.69.311-1.98,2.037-1.992a23.5,23.5,0,0,1,3.043.018A9.339,9.339,0,0,0,47.4,4.841c1.15-.942,2.148-1.651,1.9-3.355C49.155.49,49.86,0,50.884,0q8.937.014,17.874,0c1.185,0,1.772.606,1.633,1.721-.172,1.381.531,2.047,1.525,2.877a10.052,10.052,0,0,0,8.148,2.5,19.608,19.608,0,0,1,2.91-.016c1.438.026,1.79.374,1.8,1.827.013,3.089,0,6.179,0,9.268v1.578c.518.024.942.057,1.367.061,2.658.023,2.71.076,2.714,2.789q0,1.92.023,3.839a1.916,1.916,0,0,0,.138.447c.372.023.756.064,1.14.067,2.573.023,2.644.093,2.645,2.722q0,2.78,0,5.561v1.5a26.368,26.368,0,0,1,3.5.042,2.53,2.53,0,0,1,1.744.971c.181.346-.339,1.283-.787,1.688-1.175,1.062-2.51,1.946-3.719,2.974a1.984,1.984,0,0,0-.7,1.281c-.042,6.929-.028,13.858-.021,20.787a3.5,3.5,0,0,0,.1.562c.943.14,2.122.068,2.117,1.434s-1.177,1.3-2.162,1.432v6.4c.964.158,2.119.275,1.888,1.517-.115.615-.951,1.1-1.46,1.638l-.388-.26V95.47c.745,0,1.474-.01,2.2,0a1.428,1.428,0,0,1,1.6,1.648c-.021.968,0,1.938,0,3.066.551.033,1.054.09,1.557.091q9.334.009,18.669.007a2.9,2.9,0,0,1,1.3.1c.406.224.92.709.924,1.086a1.841,1.841,0,0,1-.777,1.326,3.039,3.039,0,0,1-1.539.194q-57.2.01-114.4,0c-1.047,0-2.264.188-2.432-1.342-.107-.975.627-1.369,2.371-1.369q9.2,0,18.4,0h1.727c0-1.032-.006-1.942,0-2.853.013-1.555.392-1.933,1.961-1.959.6-.01,1.209,0,1.888,0V77.246c-.876-.218-2.154-.273-1.888-1.585.124-.61.987-1.07,1.515-1.6l.36.266v-6.3l-.253.2c-.489-.608-1.278-1.176-1.365-1.836-.061-.465.832-1.056,1.3-1.59l.346.217c.02-.389.059-.778.059-1.168,0-6.576-.012-13.152.021-19.728a2.028,2.028,0,0,0-.912-1.882,39.2,39.2,0,0,1-3.74-2.946,2.029,2.029,0,0,1-.569-1.669c.1-.39.9-.787,1.42-.841,1.208-.123,2.438-.039,3.784-.039M70.722,100.2c.028-.383.064-.643.064-.9q0-15.885-.005-31.771a10.023,10.023,0,0,0-.186-1.972A11.179,11.179,0,0,0,48.447,67.7c-.024,10.458-.007,20.916,0,31.374,0,.349.033.7.055,1.126ZM90.032,29.767H29.181v6.868H90.032ZM37.636,19.7H82V9.89H37.636ZM29.183,65.03h11.6c0-4.739,0-9.369,0-14,0-1.588.378-1.986,1.922-1.987q16.876-.01,33.752,0c1.637,0,1.972.359,1.974,2.061q.007,6.287,0,12.574c0,.465.042.93.063,1.371h11.5V48.2H29.183Zm4.412-38.15H86.063v-4.3H33.595Zm7.071,50.331H29.215V95.4H40.666Zm49.352,0H78.529V95.395H90.018ZM26.808,39.489l-.175.464a8.66,8.66,0,0,0,2.666.953c20.2.055,40.406.035,60.61.061a3.337,3.337,0,0,0,2.7-1.478ZM43.557,51.795V65.082c.47.022.858.056,1.245.053s.771-.043,1.128-.064c1.511-5.8,5.013-9.514,10.794-10.94,1.726-.426,1.735-.389,1.384-2.336Zm32.134.026H61v1.892a1.135,1.135,0,0,0,.278.163C67.426,55,71.451,58.458,73.146,64.537a1.011,1.011,0,0,0,.695.573,13.161,13.161,0,0,0,1.85.027Zm14.334-8.059H29.2v1.533H90.025ZM70.5,7.006c-2.27-2.04-2.27-2.04-3.038-4.213H52.285a10.091,10.091,0,0,1-1,2.507,11.253,11.253,0,0,1-2.276,1.707ZM29.224,74.3H40.686V67.892H29.224ZM89.978,67.91H78.554v6.466H89.978ZM45.637,77.2h-2.1V100.19h2.1ZM73.593,100.2h2.058V77.162H73.593Zm-48.3-.038h15.39V98.237H25.288ZM93.97,98.3H78.487v1.889H93.97Zm-48.3-30.381h-2.12v6.4h2.12Zm29.987-.033H73.586v6.46h2.072Z" transform="translate(0 0)" fill="#00dbef"/>
        <path id="Path_41628" data-name="Path 41628" d="M268.983,50.938a1.893,1.893,0,0,1-2.013,1.818,1.915,1.915,0,0,1-1.829-1.878,1.94,1.94,0,0,1,1.955-1.9,1.915,1.915,0,0,1,1.886,1.957" transform="translate(-194.911 -36.007)" fill="#00dbef"/>
        <path id="Path_41629" data-name="Path 41629" d="M175.983,50.895a1.924,1.924,0,0,1-1.989,1.858,1.893,1.893,0,0,1-1.862-1.971,1.921,1.921,0,0,1,1.909-1.806,1.95,1.95,0,0,1,1.942,1.919" transform="translate(-126.536 -36.003)" fill="#00dbef"/>
        <path id="Path_41630" data-name="Path 41630" d="M128.123,205.846a1.928,1.928,0,0,1-1.946,1.908,1.9,1.9,0,1,1-.012-3.8,1.909,1.909,0,0,1,1.958,1.89" transform="translate(-91.353 -149.932)" fill="#00dbef"/>
        <path id="Path_41631" data-name="Path 41631" d="M315.177,205.905a1.943,1.943,0,0,1-2.011,1.846,1.9,1.9,0,1,1,2.011-1.846" transform="translate(-228.865 -149.934)" fill="#00dbef"/>
      </g>
    </g>
  </g>
</svg>
