<svg xmlns="http://www.w3.org/2000/svg" xmlns:xlink="http://www.w3.org/1999/xlink" width="179" height="103" viewBox="0 0 179 103">
  <defs>
    <clipPath id="clip-path">
      <rect id="Rectangle_1831" data-name="Rectangle 1831" width="179" height="103" transform="translate(-1769.601 4285.5)" fill="#fff" stroke="#707070" stroke-width="1"/>
    </clipPath>
    <clipPath id="clip-path-2">
      <rect id="Rectangle_1830" data-name="Rectangle 1830" width="178.669" height="103.5" fill="none"/>
    </clipPath>
  </defs>
  <g id="Mask_Group_14" data-name="Mask Group 14" transform="translate(1769.601 -4285.5)" clip-path="url(#clip-path)">
    <g id="Group_142869" data-name="Group 142869" transform="translate(-1769.635 4285)">
      <g id="Group_142868" data-name="Group 142868" clip-path="url(#clip-path-2)">
        <path id="Path_41620" data-name="Path 41620" d="M166.2,54.819a22.162,22.162,0,0,1,3.268.042,2.717,2.717,0,0,1,1.826.976,2.239,2.239,0,0,1-.466,1.879c-1.293,1.651-2.748,3.173-4.081,4.794a2.611,2.611,0,0,0-.623,1.5q-.049,17.823-.018,35.646a6.146,6.146,0,0,0,.094.694h9.73c1.939,0,2.7.428,2.738,1.534.04,1.157-.754,1.62-2.785,1.62H2.8c-2.007,0-2.844-.484-2.8-1.617.039-1.085.845-1.536,2.753-1.537h9.8V98.761c0-11.262.017-22.523-.036-33.785a4.784,4.784,0,0,0-.83-2.448c-1.1-1.669-2.422-3.195-3.53-4.861a2.342,2.342,0,0,1-.343-1.924,2.551,2.551,0,0,1,1.744-.887,19.164,19.164,0,0,1,2.907-.037V47.937c-1.038-.348-2.753.117-2.737-1.735.015-1.739,1.555-1.455,2.824-1.666,0-1.693-.008-3.346,0-5,.011-1.737.459-2.188,2.214-2.188q17.537-.007,35.074,0h1.631v-1.6c0-5.822.119-11.647-.045-17.464a14.979,14.979,0,0,1,2.762-9.127,8.5,8.5,0,0,1,.989-1.4,6.079,6.079,0,0,0,1.831-5.563c-.046-.325-.117-.78.053-.977C57.5.715,58.1-.045,58.553,0c.559.058,1.043.832,1.556,1.3.025.023.019.094.009.139-.589,2.917.9,5.025,2.569,7.189a13.871,13.871,0,0,1,3.039,9.751c-.124,1.65-.021,3.317-.021,5.128a5.311,5.311,0,0,1,5.726,1.2c2.474-2.1,4.944-2.1,7.377-.056,2.888-2.016,4.5-2.026,7.389-.013,2.393-1.988,4.863-2.056,7.338.031,2.465-2.06,4.936-2.062,7.348-.009,2.8-2.023,4.481-2.029,7.324-.07,2.559-1.588,2.945-1.669,5.849-1.129a35.444,35.444,0,0,0-.02-3.8c-.542-4.954,1.3-9.079,4.389-12.743a4.514,4.514,0,0,0,1.22-3.622,4.2,4.2,0,0,1,.056-1.981c.235-.56.912-1.333,1.356-1.308.573.032,1.123.746,1.646,1.207.1.09.08.372.049.554-.422,2.5.614,4.411,2.153,6.321a15.227,15.227,0,0,1,3.427,10.486c-.21,5.623-.053,11.26-.053,16.891v1.7h1.834q16.678,0,33.356,0c2.36,0,2.652.29,2.655,2.615,0,1.561,0,3.121,0,4.7,1.281.393,3.2-.32,3.2,1.726s-1.911,1.341-3.118,1.706ZM65.809,58.039V93.377h8.548c0-4.452.06-8.787-.017-13.12a13.456,13.456,0,0,1,4.4-10.335,27.039,27.039,0,0,1,10.576-6.074,3.041,3.041,0,0,1,1.792.058,28.864,28.864,0,0,1,9.232,5.055c3.75,3.09,5.823,6.936,5.633,11.937-.139,3.668-.027,7.346-.027,11.02v1.457h8.02V58.039Zm37,42.234c0-6.727-.056-13.306.025-19.884a10.44,10.44,0,0,0-3.208-7.831,24.5,24.5,0,0,0-8.954-5.485,1.684,1.684,0,0,0-1.079-.009c-3.581,1.3-6.977,3-9.415,6-1.134,1.392-2.378,3.209-2.437,4.873-.262,7.414-.114,14.843-.114,22.339ZM51.377,65.465h-35.6v34.793h7.169c0-4.61.028-9.132-.007-13.654-.052-6.834,3.354-11.531,9.1-14.761a2.282,2.282,0,0,1,1.857-.137c4.947,2.632,8.8,6.327,9.32,12.174.436,4.876.2,9.813.262,14.723.007.551,0,1.1,0,1.639h7.9Zm83.689,34.816c0-.637,0-1.154,0-1.67,0-4.057.033-8.114-.008-12.17-.068-6.811,3.413-11.406,9.092-14.608a2.272,2.272,0,0,1,1.86-.122c5.649,3.048,9.418,7.43,9.527,14.192.068,4.246.013,8.495.013,12.742v1.6h7.315V65.44H128.359v34.841Zm-26.3-52.424c0,.641,0,1.115,0,1.587,0,2.5-.365,3.282-1.531,3.309-1.2.027-1.6-.77-1.6-3.237,0-.519,0-1.037,0-1.612h-6.1c0,1.171.049,2.218-.014,3.259a1.541,1.541,0,1,1-3.077-.084c0-1.04,0-2.08,0-3.188H90.3c0,1.06,0,2.007,0,2.954,0,1.029-.357,1.851-1.492,1.882-1.22.032-1.613-.824-1.624-1.907-.011-.979,0-1.959,0-2.929H81.066c0,1.065-.01,2.015,0,2.966.014,1.046-.378,1.844-1.5,1.868-1.2.026-1.623-.82-1.637-1.906-.013-.978,0-1.956,0-2.916H71.848c0,.934-.021,1.742.005,2.547.038,1.143-.123,2.169-1.531,2.288-1.062.09-1.6-.749-1.6-2.363,0-.806,0-1.612,0-2.5H65.831v6.841h48.142v-6.86ZM15.741,54.722H51.374V47.874H15.741Zm112.581-.029h34.6V47.909h-34.6ZM65.79,44.564h48.151V40.414H65.79Zm.019-7.478h48.138V33.194H65.809ZM40.265,86.949H26.179V99.718H40.265Zm112,0H138.3V99.734h13.971Zm-27.184-21.47h-7.82V87.4h7.82Zm-62.564-.024h-7.86v21.92h7.86Zm-11.138-7.39H12.336c.8,1.076,1.531,1.951,2.136,2.9a2.546,2.546,0,0,0,2.45,1.285c10.927-.049,21.853-.029,32.78-.029h1.681Zm76.964-13.5h34.682a24.166,24.166,0,0,1,.018-2.625c.147-1.3-.312-1.684-1.644-1.676-10.532.055-21.065.03-31.6.034-.465,0-.93.041-1.458.066Zm38.085,13.478H128.406v4.177c11.339,0,22.55,0,33.761-.018a1.49,1.49,0,0,0,.985-.42c1.065-1.151,2.075-2.353,3.281-3.74m-115.1-17.48H15.788v3.993H51.332Zm65.945,14.154h7.768V40.358h-7.768Zm-62.62-.012h7.8V40.415h-7.8ZM138.4,83.667H152c.038-.17.093-.269.075-.353-.829-3.806-3.348-6.3-6.5-8.272a1.032,1.032,0,0,0-.887.1,13.218,13.218,0,0,0-6.284,8.528m-98.392.027a10.029,10.029,0,0,0-3.417-6.241c-3.812-3.349-3.133-3.4-7.02.156a10.292,10.292,0,0,0-3.228,6.085Zm77.23,16.56h7.8V90.717h-7.8Zm-54.771-9.53h-7.79v9.547h7.79Zm-7.8-53.662h7.824v-8.8H54.667Zm62.511-8.808c0,2.8-.013,5.545.027,8.291a.86.86,0,0,0,.6.585c2.407.042,4.816.027,7.267.027v-8.9Zm2.351-3.238c.31-1.334-.469-3.328,1.629-3.341,2.168-.014,1.379,2.056,1.691,3.3h2.23V18.229h-7.787v6.786Zm-59.308-.072h2.243V18.2H54.689v6.779h2.235c.277-1.318-.474-3.36,1.734-3.306,2.013.05,1.284,1.944,1.564,3.266M117.281,62.1h7.766V58.012h-7.766ZM62.469,58.054H54.68v4.091h7.789Zm3.345,42.177H74.25V96.718H65.814ZM114,96.748h-7.971v3.483H114Zm7.515-88.32-.564.042-3.8,6.395h8.1l-3.742-6.436m-62.586.023-.595.038-3.776,6.375h8.11L58.926,8.451M106.66,29.909c.166-1.431.038-2.663-1.151-3.3a2.32,2.32,0,0,0-1.972.066c-1.141.711-1.184,1.93-.947,3.235ZM84.522,29.9c.231-1.326.165-2.555-.994-3.225a2.4,2.4,0,0,0-2.075.028c-1.129.7-1.174,1.928-.926,3.2Zm14.731.033c.213-1.456.119-2.728-1.172-3.364a2.285,2.285,0,0,0-1.965.159,2.724,2.724,0,0,0-.852,3.206ZM77.206,29.9c.208-1.41.085-2.637-1.1-3.287a2.312,2.312,0,0,0-1.973.05c-1.129.7-1.241,1.909-.99,3.237Zm36.76,0c.2-1.4.113-2.631-1.082-3.282a2.332,2.332,0,0,0-1.97.045c-1.156.694-1.2,1.919-1,3.238Zm-22.075.014c.187-1.466.119-2.751-1.2-3.364a2.31,2.31,0,0,0-1.955.193c-1.074.76-1.127,1.949-.8,3.171Zm-22.071.013c.2-1.448.125-2.724-1.164-3.362a2.3,2.3,0,0,0-1.956.159c-1.09.747-1.133,1.944-.857,3.2Z" transform="translate(0 -0.001)" fill="#00dbef"/>
        <path id="Path_41621" data-name="Path 41621" d="M367.431,221.613a2.511,2.511,0,0,1-2.522,2.413,2.477,2.477,0,0,1-2.438-2.621,2.448,2.448,0,0,1,2.576-2.328,2.48,2.48,0,0,1,2.385,2.536" transform="translate(-258.669 -156.34)" fill="#00dbef"/>
        <path id="Path_41622" data-name="Path 41622" d="M252.432,221.482a2.492,2.492,0,0,1-4.982.14,2.492,2.492,0,0,1,4.982-.14" transform="translate(-176.588 -156.347)" fill="#00dbef"/>
        <path id="Path_41623" data-name="Path 41623" d="M72.718,245.6a2.469,2.469,0,1,1-4.935-.141,2.469,2.469,0,0,1,4.935.141" transform="translate(-48.371 -173.48)" fill="#00dbef"/>
        <path id="Path_41624" data-name="Path 41624" d="M151.878,245.605a2.452,2.452,0,0,1-2.467,2.442,2.482,2.482,0,0,1-2.473-2.588,2.452,2.452,0,0,1,2.546-2.358,2.422,2.422,0,0,1,2.393,2.5" transform="translate(-104.859 -173.485)" fill="#00dbef"/>
        <path id="Path_41625" data-name="Path 41625" d="M543.31,245.523a2.489,2.489,0,1,1-4.977.018,2.489,2.489,0,0,1,4.977-.018" transform="translate(-384.173 -173.485)" fill="#00dbef"/>
        <path id="Path_41626" data-name="Path 41626" d="M464.077,245.551A2.5,2.5,0,1,1,461.6,243.1a2.5,2.5,0,0,1,2.478,2.449" transform="translate(-327.62 -173.486)" fill="#00dbef"/>
      </g>
    </g>
  </g>
</svg>
