<svg id="Logo" xmlns="http://www.w3.org/2000/svg" width="72.111" height="63.199" viewBox="0 0 72.111 63.199">
  <rect id="Rectangle_1589" data-name="Rectangle 1589" width="72.111" height="63.071" transform="translate(0 0.128)" fill="#fff" opacity="0"/>
  <g id="A_M" data-name="A&amp;M" transform="translate(59.344 29.671)">
    <path id="Path_2" data-name="Path 2" d="M139.479,94.567a1.367,1.367,0,0,0,.493-1.023.961.961,0,0,0-.359-.752,1.451,1.451,0,0,0-.98-.318,1.494,1.494,0,0,0-1.294.5.9.9,0,0,0-.187.555,1.291,1.291,0,0,0,.282.79,7.992,7.992,0,0,0,.946.983,6.536,6.536,0,0,0,1.1-.734m.118,5.6a3.309,3.309,0,0,0,1.036-.768l-2.8-2.725a8.366,8.366,0,0,0-1.538.968,1.6,1.6,0,0,0-.555,1.234,1.331,1.331,0,0,0,.717,1.211,2.974,2.974,0,0,0,1.54.421,3.494,3.494,0,0,0,1.6-.341m-3.662-5.538a2.043,2.043,0,0,1-.267-.956,1.954,1.954,0,0,1,.814-1.6,3.411,3.411,0,0,1,2.166-.633,3.107,3.107,0,0,1,2.016.59,1.771,1.771,0,0,1,.722,1.41,2.263,2.263,0,0,1-.747,1.675,7.142,7.142,0,0,1-1.465.968l2.259,2.152c.139-.361.234-.631.289-.806a5.734,5.734,0,0,0,.168-.752h1.48A6.073,6.073,0,0,1,142.8,98.5c-.285.578-.428.816-.428.7l2.168,2.107h-1.927l-1.164-1.1a5.913,5.913,0,0,1-1.263.858,5.312,5.312,0,0,1-2.311.477,4,4,0,0,1-2.809-.826,2.537,2.537,0,0,1-.877-1.864,2.38,2.38,0,0,1,.854-1.871,9.774,9.774,0,0,1,1.947-1.143,5.315,5.315,0,0,1-1.055-1.214" transform="translate(-133.43 -80.207)" fill="#fff"/>
    <path id="Path_3" data-name="Path 3" d="M132.5,118.218h2.385l3.554,8.382L142,118.218h2.373v9.911h-1.584v-5.853c0-.2.014-.535.036-1.006s.03-.97.03-1.5l-3.6,8.362h-1.669l-3.577-8.362v.3c0,.246.014.619.032,1.116s.035.86.035,1.09v5.853H132.5Z" transform="translate(-132.496 -95.008)" fill="#fff"/>
    <path id="Path_1" data-name="Path 1" d="M140.846,72.176,138.939,67.8l-1.984,4.374Zm-2.827-5.845h1.945l4.491,9.912h-1.838l-1.3-2.993H136.47l-1.357,2.993h-1.771Z" transform="translate(-132.964 -66.331)" fill="#fff"/>
  </g>
  <path id="Path_4" data-name="Path 4" d="M37.313,0,0,62.879H8.627L38.976,9.546V62.879h6.765V0Z" transform="translate(0)" fill="#fff"/>
  <path id="Path_5" data-name="Path 5" d="M66.05,52.611v32.74h6.808V40.66Z" transform="translate(-36.466 -22.472)" fill="#fff"/>
  <path id="Path_6" data-name="Path 6" d="M107.088,85.351h6.806V52.611l-6.806-11.952Z" transform="translate(-59.124 -22.472)" fill="#fff"/>
</svg>
